<?xml version="1.0" encoding="UTF-8"?>
<svg fill="#1A1919" width="100pt" height="100pt" version="1.1" viewBox="0 0 100 100" xmlns="http://www.w3.org/2000/svg">
 <g>
  <path d="m98.438 48.438v-3.125h-3.125v-17.188c0-7.7539-6.3086-14.062-14.062-14.062h-18.75c-5.4453 0-10.164 3.1133-12.5 7.6484-2.3359-4.5352-7.0547-7.6484-12.5-7.6484h-18.75c-7.7539 0-14.062 6.3086-14.062 14.062v17.188h-3.125v3.125h3.125v3.125h-3.125v18.75h3.125v12.5h-3.125v3.125h9.375v-3.125h-3.125v-12.5h3.125v-4.0391l4.0391 4.0391h26.293l4.043-4.0391v4.0391h3.125v12.5h-3.125v3.125h9.375v-3.125h-3.125v-12.5h3.125v-4.0391l4.0391 4.0391h26.293l4.043-4.0391v4.0391h3.125v12.5h-3.125v3.125h9.375v-3.125h-3.125v-12.5h3.125v-18.75h-3.125v-3.125zm-90.625 0h3.125v-3.125h-3.125v-17.188c0-6.0312 4.9062-10.938 10.938-10.938h18.75c6.0312 0 10.938 4.9062 10.938 10.938v17.188h-3.125v3.125h3.125v3.125h-3.125v3.125h-34.375v-3.125h-3.125zm3.125 9.375h34.375v3.125h-34.375zm-3.125 9.375h-3.125v-12.5h3.125zm32.164 0h-23.703l-3.125-3.125h29.957zm11.586 0h-3.125v-12.5h3.125zm3.125-9.375h34.375v3.125h-34.375zm29.039 9.375h-23.703l-3.125-3.125h29.957zm11.586 0h-3.125v-12.5h3.125zm-3.125-15.625h-3.125v3.125h-34.375v-3.125h-3.125v-3.125h3.125v-3.125h-3.125v-17.188c0-6.0312 4.9062-10.938 10.938-10.938h18.75c6.0312 0 10.938 4.9062 10.938 10.938v17.188h-3.125v3.125h3.125z"/>
  <path d="m45.312 28.125c0-4.3086-3.5039-7.8125-7.8125-7.8125h-18.75c-4.3086 0-7.8125 3.5039-7.8125 7.8125v14.062h34.375zm-3.1836-0.58594-1.5039 1.5-4.0391-4.0391 1.5039-1.5039c2.1094 0.26953 3.7695 1.9297 4.0391 4.043zm-11.527 11.523h-4.957l-1.5625-1.5625 4.043-4.0391 4.0391 4.0391zm-4.9531-15.625h4.957l1.5625 1.5625-4.043 4.0391-4.0391-4.0391zm0.26562 7.8125-4.0391 4.0391-4.0391-4.0391 4.0391-4.0391zm4.4219 0 4.0391-4.0391 4.0391 4.0391-4.0391 4.0391zm-12.172-7.7539 1.5 1.5039-4.0391 4.0391-1.5039-1.5039c0.26953-2.1094 1.9297-3.7695 4.043-4.0391zm-4.1016 11.527 1.5625-1.5625 4.0391 4.0391-1.5625 1.5625h-4.0391zm24.086 4.0391-1.5625-1.5625 4.0391-4.0391 1.5625 1.5625v4.0391z"/>
  <path d="m89.062 28.125c0-4.3086-3.5039-7.8125-7.8125-7.8125h-18.75c-4.3086 0-7.8125 3.5039-7.8125 7.8125v14.062h34.375zm-3.1836-0.58594-1.5039 1.5-4.0391-4.0391 1.5039-1.5039c2.1094 0.26953 3.7695 1.9297 4.0391 4.043zm-11.527 11.523h-4.957l-1.5625-1.5625 4.043-4.0391 4.0391 4.0391zm-4.9531-15.625h4.957l1.5625 1.5625-4.043 4.0391-4.0391-4.0391zm0.26562 7.8125-4.0391 4.0391-4.0391-4.0391 4.0391-4.0391zm4.4219 0 4.0391-4.0391 4.0391 4.0391-4.0391 4.0391zm-12.172-7.7539 1.5 1.5039-4.0391 4.0391-1.5039-1.5039c0.26953-2.1094 1.9297-3.7695 4.043-4.0391zm-4.1016 11.527 1.5625-1.5625 4.0391 4.0391-1.5625 1.5625h-4.0391zm24.086 4.0391-1.5625-1.5625 4.0391-4.0391 1.5625 1.5625v4.0391z"/>
 </g>
</svg>
