<?xml version="1.0" encoding="UTF-8" standalone="no"?>
<!DOCTYPE svg PUBLIC "-//W3C//DTD SVG 1.1//EN" "http://www.w3.org/Graphics/SVG/1.1/DTD/svg11.dtd">
<svg width="100%" height="100%" viewBox="0 0 1000 450" version="1.1" xmlns="http://www.w3.org/2000/svg" xmlns:xlink="http://www.w3.org/1999/xlink" xml:space="preserve" xmlns:serif="http://www.serif.com/" style="fill-rule:evenodd;clip-rule:evenodd;stroke-linejoin:round;stroke-miterlimit:2;">
    <g id="path4193" transform="matrix(4.54343,0,0,-4.54343,441.636,257.894)">
        <path d="M0,0C0,-2.425 -0.463,-4.637 -1.3,-6.226C-2.309,-8.131 -3.473,-9.46 -4.666,-10.069C-6.307,-10.904 -8.373,-11.759 -11.252,-11.759L-15.296,-11.759L-15.296,10.994L-12.075,10.994C-7.795,10.994 -4.862,10.153 -3.104,8.422C-1.014,6.363 0,3.608 0,0M-1.89,15.206C-4.324,16.446 -7.943,16.446 -12.523,16.446L-19.592,16.446C-20.75,16.446 -21.689,15.507 -21.689,14.349L-21.689,-15.114C-21.689,-16.271 -20.75,-17.21 -19.592,-17.21L-12.93,-17.21C-9.15,-17.21 -5.721,-16.817 -3.519,-16.131C-1.934,-15.64 -0.338,-14.602 1.503,-12.861C3.062,-11.389 4.288,-9.544 5.145,-7.377C6.031,-5.134 6.463,-2.768 6.463,-0.145C6.463,3.515 5.692,6.664 4.104,9.477C2.663,12.035 0.76,13.854 -1.89,15.206" style="fill:rgb(135,135,135);fill-rule:nonzero;"/>
    </g>
    <g id="path4197" transform="matrix(4.54343,0,0,-4.54343,996.147,311.319)">
        <path d="M0,0L-10.436,0L-10.436,27.36C-10.436,27.827 -10.816,28.205 -11.281,28.205L-15.983,28.205C-16.449,28.205 -16.828,27.827 -16.828,27.36L-16.828,-4.606C-16.828,-5.073 -16.449,-5.452 -15.983,-5.452L0,-5.452C0.465,-5.452 0.848,-5.073 0.848,-4.606L0.848,-0.847C0.848,-0.378 0.465,0 0,0" style="fill:rgb(135,135,135);fill-rule:nonzero;"/>
    </g>
    <g id="path4201" transform="matrix(4.54343,0,0,-4.54343,870.293,276.005)">
        <path d="M0,0C0,-2.225 -0.685,-4.08 -2.034,-5.516C-3.384,-6.953 -5.073,-7.683 -7.051,-7.683C-9.089,-7.683 -10.802,-6.965 -12.147,-5.553C-13.487,-4.138 -14.169,-2.262 -14.169,0.023C-14.169,2.265 -13.487,4.104 -12.145,5.494C-10.802,6.885 -9.089,7.59 -7.051,7.59C-5.025,7.59 -3.327,6.874 -2.001,5.458C-0.675,4.046 0,2.209 0,0M-5.813,13.324C-7.349,13.324 -8.904,13.019 -10.198,12.462C-11.706,11.816 -13.092,10.909 -14.101,9.908L-14.702,9.428L-17.41,11.971L-20.253,11.971C-20.718,11.971 -21.095,11.594 -21.095,11.129L-21.095,-21.782C-21.095,-22.249 -20.717,-22.627 -20.25,-22.627L-15.549,-22.627C-15.082,-22.627 -14.702,-22.248 -14.702,-21.78L-14.702,-9.614L-14.104,-10.069C-12.817,-11.273 -11.154,-12.103 -9.979,-12.589C-8.73,-13.105 -7.358,-13.369 -5.903,-13.369C-2.597,-13.369 0.182,-12.121 2.596,-9.557C5.004,-7 6.177,-3.896 6.177,-0.069C6.177,3.817 5.001,7.061 2.672,9.571C0.37,12.062 -2.485,13.324 -5.813,13.324" style="fill:rgb(135,135,135);fill-rule:nonzero;"/>
    </g>
    <g id="path4205" transform="matrix(4.54343,0,0,-4.54343,660.825,264.325)">
        <path d="M0,0L0.149,0.387C0.996,2.253 1.776,3.432 2.53,3.991C3.894,5 5.495,5.513 7.295,5.513C8.838,5.513 10.319,5.014 11.691,4.028C12.9,3.163 13.781,1.898 14.224,0.412L14.325,0L0,0ZM6.978,10.753C3.177,10.753 0.107,9.498 -2.412,6.917C-4.932,4.333 -6.157,1.176 -6.157,-2.734C-6.157,-6.549 -4.929,-9.636 -2.4,-12.173C0.126,-14.708 3.309,-15.939 7.33,-15.939C9.914,-15.939 12.154,-15.485 13.986,-14.591C15.529,-13.839 16.901,-12.748 18.065,-11.348C18.232,-11.145 18.298,-10.876 18.237,-10.62C18.181,-10.363 18.007,-10.148 17.768,-10.037L13.986,-8.298C13.686,-8.16 13.33,-8.209 13.079,-8.426C11.388,-9.885 9.438,-10.626 7.282,-10.626C5.126,-10.626 3.489,-10.137 2.274,-9.133C0.984,-8.061 0.271,-6.942 -0.058,-5.454L19.638,-5.454C20.104,-5.454 20.48,-5.079 20.482,-4.613L20.489,-3.778C20.489,0.581 19.12,4.478 16.732,6.917C14.203,9.498 11.014,10.753 6.978,10.753" style="fill:rgb(135,135,135);fill-rule:nonzero;"/>
    </g>
    <g id="path4209" transform="matrix(4.54343,0,0,-4.54343,519.362,264.325)">
        <path d="M0,0L0.148,0.386C1.002,2.257 1.783,3.436 2.535,3.991C3.895,5 5.498,5.513 7.298,5.513C8.84,5.513 10.32,5.013 11.694,4.028C12.902,3.163 13.782,1.898 14.227,0.413L14.326,0L0,0ZM6.979,10.753C3.181,10.753 0.108,9.498 -2.411,6.917C-4.932,4.333 -6.156,1.176 -6.156,-2.734C-6.156,-6.55 -4.929,-9.638 -2.399,-12.173C0.127,-14.708 3.31,-15.939 7.331,-15.939C9.915,-15.939 12.155,-15.485 13.987,-14.591C15.531,-13.839 16.902,-12.748 18.066,-11.347C18.234,-11.145 18.297,-10.876 18.238,-10.619C18.182,-10.363 18.007,-10.148 17.769,-10.037L13.987,-8.298C13.689,-8.16 13.332,-8.209 13.08,-8.426C11.392,-9.885 9.441,-10.626 7.283,-10.626C5.127,-10.626 3.49,-10.137 2.278,-9.132C0.988,-8.061 0.272,-6.943 -0.057,-5.454L19.639,-5.454C20.104,-5.454 20.483,-5.079 20.486,-4.613L20.49,-3.778C20.49,0.58 19.121,4.476 16.733,6.917C14.207,9.498 11.018,10.753 6.979,10.753" style="fill:rgb(135,135,135);fill-rule:nonzero;"/>
    </g>
    <g id="path4213" transform="matrix(4.54343,0,0,-4.54343,186.112,282.366)">
        <path d="M0,0C-2.797,0 -5.063,2.266 -5.063,5.063C-5.063,5.358 -5.038,5.647 -4.988,5.928L-17.096,12.9C-17.977,12.156 -19.116,11.707 -20.359,11.707C-23.156,11.707 -25.423,13.974 -25.423,16.77C-25.423,19.566 -23.156,21.833 -20.359,21.833C-17.562,21.833 -15.295,19.566 -15.295,16.77C-15.295,16.448 -15.328,16.133 -15.386,15.827L-3.322,8.881C-2.433,9.656 -1.271,10.126 0,10.126C2.795,10.126 5.062,7.859 5.062,5.063C5.062,2.266 2.795,0 0,0M-15.357,-6.724C-15.357,-9.52 -17.623,-11.787 -20.42,-11.787C-23.215,-11.787 -25.482,-9.52 -25.482,-6.724C-25.482,-3.927 -23.215,-1.66 -20.42,-1.66C-19.163,-1.66 -18.015,-2.119 -17.13,-2.877L-8.303,2.196C-7.926,1.107 -7.34,0.115 -6.595,-0.733L-15.438,-5.816C-15.386,-6.111 -15.357,-6.414 -15.357,-6.724M15.087,24.175L-8.955,37.913C-10.592,38.848 -12.602,38.848 -14.239,37.913L-38.279,24.175C-39.939,23.227 -40.963,21.461 -40.963,19.551L-40.963,-8.395C-40.963,-10.297 -39.948,-12.056 -38.3,-13.007L3.087,-36.896L3.094,-19.928L15.104,-13.007C16.754,-12.056 17.77,-10.297 17.77,-8.393L17.77,19.551C17.77,21.461 16.746,23.227 15.087,24.175" style="fill:rgb(135,135,135);fill-rule:nonzero;"/>
    </g>
    <g transform="matrix(1,0,0,1,-85,47.4687)">
        <g transform="matrix(96,0,0,96,422.984,70.3421)">
            <path d="M0.168,-0.634L0.266,-0.634L0.266,-0.731L0.168,-0.731L0.168,-0.634ZM0.365,-0.634L0.463,-0.634L0.463,-0.731L0.365,-0.731L0.365,-0.634ZM0.316,0.012C0.462,0.012 0.555,-0.083 0.555,-0.228L0.555,-0.54L0.47,-0.54L0.47,-0.242C0.47,-0.136 0.412,-0.07 0.316,-0.07C0.221,-0.07 0.161,-0.135 0.161,-0.242L0.161,-0.54L0.076,-0.54L0.076,-0.228C0.076,-0.083 0.171,0.012 0.316,0.012Z" style="fill:rgb(135,135,135);fill-rule:nonzero;"/>
        </g>
        <g transform="matrix(96,0,0,96,483.656,70.3421)">
            <path d="M0.371,-0.552C0.29,-0.552 0.22,-0.522 0.171,-0.472L0.171,-0.733L0.086,-0.733L0.086,0L0.152,0L0.163,-0.077C0.213,-0.022 0.286,0.012 0.371,0.012C0.533,0.012 0.649,-0.109 0.649,-0.27C0.649,-0.432 0.533,-0.552 0.371,-0.552L0.371,-0.552ZM0.364,-0.07C0.25,-0.07 0.165,-0.157 0.165,-0.27C0.165,-0.384 0.25,-0.47 0.364,-0.47C0.479,-0.47 0.562,-0.385 0.562,-0.27C0.562,-0.155 0.479,-0.07 0.364,-0.07L0.364,-0.07Z" style="fill:rgb(135,135,135);fill-rule:nonzero;"/>
        </g>
        <g transform="matrix(96,0,0,96,550.088,70.3421)">
            <path d="M0.591,-0.268C0.591,-0.426 0.482,-0.552 0.318,-0.552C0.162,-0.552 0.043,-0.431 0.043,-0.27C0.043,-0.109 0.162,0.012 0.318,0.012C0.436,0.012 0.531,-0.053 0.576,-0.165L0.487,-0.165C0.453,-0.106 0.393,-0.071 0.318,-0.071C0.216,-0.071 0.142,-0.137 0.128,-0.237L0.589,-0.237C0.59,-0.247 0.591,-0.258 0.591,-0.268ZM0.318,-0.471C0.414,-0.471 0.487,-0.412 0.505,-0.316L0.13,-0.316C0.148,-0.41 0.22,-0.471 0.318,-0.471L0.318,-0.471Z" style="fill:rgb(135,135,135);fill-rule:nonzero;"/>
        </g>
        <g transform="matrix(96,0,0,96,610.76,70.3421)">
            <path d="M0.332,-0.543C0.255,-0.543 0.198,-0.513 0.16,-0.458L0.146,-0.54L0.086,-0.54L0.086,0L0.171,0L0.171,-0.293C0.171,-0.398 0.226,-0.462 0.325,-0.462L0.38,-0.462L0.38,-0.543L0.332,-0.543Z" style="fill:rgb(135,135,135);fill-rule:nonzero;"/>
        </g>
        <g transform="matrix(96,0,0,96,647.432,70.3421)">
            <path d="M0.257,0.012C0.385,0.012 0.47,-0.054 0.47,-0.155C0.47,-0.287 0.361,-0.304 0.267,-0.319C0.195,-0.331 0.133,-0.341 0.133,-0.398C0.133,-0.445 0.179,-0.476 0.253,-0.476C0.328,-0.476 0.374,-0.443 0.378,-0.385L0.458,-0.385C0.455,-0.487 0.376,-0.552 0.254,-0.552C0.132,-0.552 0.051,-0.489 0.051,-0.396C0.051,-0.274 0.154,-0.255 0.246,-0.239C0.319,-0.227 0.386,-0.214 0.386,-0.151C0.386,-0.098 0.333,-0.067 0.259,-0.067C0.184,-0.067 0.129,-0.101 0.124,-0.166L0.041,-0.166C0.045,-0.057 0.128,0.012 0.257,0.012L0.257,0.012Z" style="fill:rgb(135,135,135);fill-rule:nonzero;"/>
        </g>
        <g transform="matrix(96,0,0,96,696.68,70.3421)">
            <path d="M0.591,-0.268C0.591,-0.426 0.482,-0.552 0.318,-0.552C0.162,-0.552 0.043,-0.431 0.043,-0.27C0.043,-0.109 0.162,0.012 0.318,0.012C0.436,0.012 0.531,-0.053 0.576,-0.165L0.487,-0.165C0.453,-0.106 0.393,-0.071 0.318,-0.071C0.216,-0.071 0.142,-0.137 0.128,-0.237L0.589,-0.237C0.59,-0.247 0.591,-0.258 0.591,-0.268ZM0.318,-0.471C0.414,-0.471 0.487,-0.412 0.505,-0.316L0.13,-0.316C0.148,-0.41 0.22,-0.471 0.318,-0.471L0.318,-0.471Z" style="fill:rgb(135,135,135);fill-rule:nonzero;"/>
        </g>
        <g transform="matrix(96,0,0,96,756.776,70.3421)">
            <path d="M0.328,-0.079C0.257,-0.079 0.216,-0.12 0.216,-0.192L0.216,-0.465L0.391,-0.465L0.391,-0.536L0.216,-0.536L0.216,-0.695L0.131,-0.695L0.131,-0.536L0.012,-0.536L0.012,-0.465L0.131,-0.465L0.131,-0.188C0.131,-0.072 0.203,0.001 0.318,0.001L0.394,0.001L0.394,-0.079L0.328,-0.079Z" style="fill:rgb(135,135,135);fill-rule:nonzero;"/>
        </g>
        <g transform="matrix(96,0,0,96,797.288,70.3421)">
            <path d="M0.162,-0.08L0.447,-0.526L0.447,-0.54L0.044,-0.54L0.044,-0.461L0.312,-0.461L0.025,-0.013L0.025,0L0.448,0L0.448,-0.08L0.162,-0.08Z" style="fill:rgb(135,135,135);fill-rule:nonzero;"/>
        </g>
        <g transform="matrix(96,0,0,96,843.464,70.3421)">
            <path d="M0.328,-0.079C0.257,-0.079 0.216,-0.12 0.216,-0.192L0.216,-0.465L0.391,-0.465L0.391,-0.536L0.216,-0.536L0.216,-0.695L0.131,-0.695L0.131,-0.536L0.012,-0.536L0.012,-0.465L0.131,-0.465L0.131,-0.188C0.131,-0.072 0.203,0.001 0.318,0.001L0.394,0.001L0.394,-0.079L0.328,-0.079Z" style="fill:rgb(135,135,135);fill-rule:nonzero;"/>
        </g>
        <g transform="matrix(96,0,0,96,906.728,70.3421)">
            <path d="M0.467,-0.54L0.287,-0.11L0.104,-0.54L0.015,-0.54L0.249,0L0.326,0L0.554,-0.54L0.467,-0.54Z" style="fill:rgb(135,135,135);fill-rule:nonzero;"/>
        </g>
        <g transform="matrix(96,0,0,96,960.104,70.3421)">
            <path d="M0.329,0.012C0.493,0.012 0.616,-0.108 0.616,-0.27C0.616,-0.432 0.493,-0.552 0.329,-0.552C0.166,-0.552 0.043,-0.433 0.043,-0.27C0.043,-0.108 0.166,0.012 0.329,0.012ZM0.329,-0.07C0.214,-0.07 0.13,-0.154 0.13,-0.27C0.13,-0.386 0.214,-0.47 0.329,-0.47C0.445,-0.47 0.529,-0.386 0.529,-0.27C0.529,-0.154 0.445,-0.07 0.329,-0.07L0.329,-0.07Z" style="fill:rgb(135,135,135);fill-rule:nonzero;"/>
        </g>
        <g transform="matrix(96,0,0,96,1023.37,70.3421)">
            <path d="M0.356,-0.552C0.272,-0.552 0.203,-0.515 0.163,-0.455L0.146,-0.54L0.086,-0.54L0.086,0L0.171,0L0.171,-0.295C0.171,-0.396 0.242,-0.474 0.334,-0.474C0.428,-0.474 0.479,-0.413 0.479,-0.303L0.479,0L0.564,0L0.564,-0.323C0.564,-0.455 0.484,-0.552 0.356,-0.552L0.356,-0.552Z" style="fill:rgb(135,135,135);fill-rule:nonzero;"/>
        </g>
    </g>
</svg>
