<?xml version="1.0" encoding="UTF-8" standalone="no"?>
<!DOCTYPE svg PUBLIC "-//W3C//DTD SVG 1.1//EN" "http://www.w3.org/Graphics/SVG/1.1/DTD/svg11.dtd">
<svg width="100%" height="100%" viewBox="0 0 1350 300" version="1.1" xmlns="http://www.w3.org/2000/svg" xmlns:xlink="http://www.w3.org/1999/xlink" xml:space="preserve" xmlns:serif="http://www.serif.com/" style="fill-rule:evenodd;clip-rule:evenodd;stroke-linejoin:round;stroke-miterlimit:1.41421;">
    <g transform="matrix(0.705617,0,0,0.705617,36.7058,24.7547)">
        <g id="Artboard2">
            <g>
                <g>
                    <path d="M1807.06,212.173C1805.65,209.106 1803.7,206.528 1801.22,204.433C1798.74,202.341 1795.87,200.588 1792.61,199.176C1789.35,197.766 1785.87,196.62 1782.17,195.744L1756.77,189.465C1754.63,188.979 1752.61,188.322 1750.71,187.494C1748.81,186.668 1747.14,185.646 1745.68,184.427C1744.22,183.211 1743.07,181.703 1742.25,179.9C1741.42,178.1 1741,175.983 1741,173.548C1741,169.655 1741.73,166.393 1743.19,163.764C1744.65,161.136 1746.57,159.018 1748.96,157.412C1751.34,155.806 1754.12,154.637 1757.28,153.907C1760.44,153.177 1763.73,152.812 1767.13,152.812C1770.83,152.812 1774.36,153.323 1777.72,154.345C1781.07,155.367 1784.07,156.878 1786.69,158.872C1789.32,160.869 1791.44,163.351 1793.04,166.32C1794.65,169.29 1795.5,172.77 1795.6,176.761L1805.53,176.761C1805.53,171.408 1804.5,166.71 1802.46,162.669C1800.42,158.63 1797.62,155.247 1794.07,152.52C1790.51,149.796 1786.4,147.751 1781.73,146.387C1777.06,145.025 1772.15,144.342 1766.99,144.342C1759.69,144.342 1753.7,145.39 1749.03,147.482C1744.36,149.576 1740.69,152.132 1738.01,155.148C1735.33,158.167 1733.51,161.38 1732.54,164.786C1731.56,168.195 1731.08,171.164 1731.08,173.694C1731.08,177.783 1731.73,181.24 1733.05,184.062C1734.36,186.887 1736.09,189.271 1738.23,191.217C1740.37,193.166 1742.88,194.722 1745.75,195.89C1748.62,197.059 1751.56,198.033 1754.58,198.811L1777.79,204.506C1780.22,205.09 1782.7,205.845 1785.23,206.769C1787.76,207.696 1790.08,208.887 1792.17,210.347C1794.26,211.807 1795.96,213.61 1797.28,215.75C1798.59,217.893 1799.25,220.423 1799.25,223.344C1799.25,227.14 1798.32,230.378 1796.48,233.055C1794.63,235.733 1792.31,237.924 1789.54,239.626C1786.77,241.33 1783.78,242.572 1780.56,243.35C1777.35,244.13 1774.38,244.518 1771.66,244.518C1766.89,244.518 1762.41,244.057 1758.23,243.131C1754.04,242.206 1750.42,240.673 1747.35,238.531C1744.29,236.39 1741.88,233.518 1740.13,229.915C1738.38,226.314 1737.55,221.836 1737.65,216.48L1727.72,216.48C1727.43,222.81 1728.28,228.286 1730.28,232.909C1732.27,237.534 1735.12,241.33 1738.81,244.299C1742.51,247.27 1746.99,249.46 1752.24,250.87C1757.5,252.28 1763.19,252.987 1769.32,252.987C1775.45,252.987 1780.71,252.426 1785.09,251.308C1789.47,250.19 1793.14,248.705 1796.11,246.854C1799.08,245.006 1801.41,242.962 1803.12,240.721C1804.82,238.483 1806.13,236.267 1807.06,234.077C1807.98,231.886 1808.57,229.819 1808.81,227.871C1809.05,225.924 1809.18,224.366 1809.18,223.198C1809.18,218.915 1808.47,215.239 1807.06,212.173ZM1610.36,155.002L1646.7,155.002L1646.7,250.797L1656.63,250.797L1656.63,155.002L1692.98,155.002L1692.98,146.533L1610.36,146.533L1610.36,155.002ZM1569.7,204.433C1567.22,202.341 1564.35,200.588 1561.09,199.176C1557.83,197.766 1554.35,196.62 1550.65,195.744L1525.25,189.465C1523.11,188.979 1521.09,188.322 1519.2,187.494C1517.3,186.668 1515.62,185.646 1514.16,184.427C1512.7,183.211 1511.55,181.703 1510.73,179.9C1509.9,178.1 1509.49,175.983 1509.49,173.548C1509.49,169.655 1510.22,166.393 1511.68,163.764C1513.14,161.136 1515.06,159.018 1517.44,157.412C1519.83,155.806 1522.6,154.637 1525.76,153.907C1528.93,153.177 1532.21,152.812 1535.62,152.812C1539.32,152.812 1542.84,153.323 1546.2,154.345C1549.56,155.367 1552.55,156.878 1555.18,158.872C1557.81,160.869 1559.92,163.351 1561.53,166.32C1563.13,169.29 1563.99,172.77 1564.08,176.761L1574.01,176.761C1574.01,171.408 1572.99,166.71 1570.94,162.669C1568.9,158.63 1566.1,155.247 1562.55,152.52C1559,149.796 1554.89,147.751 1550.22,146.387C1545.54,145.025 1540.63,144.342 1535.47,144.342C1528.17,144.342 1522.19,145.39 1517.52,147.482C1512.85,149.576 1509.17,152.132 1506.5,155.148C1503.82,158.167 1501.99,161.38 1501.02,164.786C1500.05,168.195 1499.56,171.164 1499.56,173.694C1499.56,177.783 1500.22,181.24 1501.53,184.062C1502.85,186.887 1504.57,189.271 1506.72,191.217C1508.85,193.166 1511.36,194.722 1514.23,195.89C1517.1,197.059 1520.05,198.033 1523.06,198.811L1546.27,204.506C1548.71,205.09 1551.19,205.845 1553.72,206.769C1556.25,207.696 1558.56,208.887 1560.65,210.347C1562.74,211.807 1564.45,213.61 1565.76,215.75C1567.08,217.893 1567.73,220.423 1567.73,223.344C1567.73,227.14 1566.81,230.378 1564.96,233.055C1563.11,235.733 1560.8,237.924 1558.03,239.626C1555.25,241.33 1552.26,242.572 1549.05,243.35C1545.84,244.13 1542.87,244.518 1540.14,244.518C1535.37,244.518 1530.9,244.057 1526.71,243.131C1522.53,242.206 1518.9,240.673 1515.84,238.531C1512.77,236.39 1510.36,233.518 1508.61,229.915C1506.86,226.314 1506.03,221.836 1506.13,216.48L1496.2,216.48C1495.91,222.81 1496.76,228.286 1498.76,232.909C1500.75,237.534 1503.6,241.33 1507.3,244.299C1511,247.27 1515.47,249.46 1520.73,250.87C1525.98,252.28 1531.68,252.987 1537.81,252.987C1543.94,252.987 1549.19,252.426 1553.57,251.308C1557.95,250.19 1561.62,248.705 1564.59,246.854C1567.56,245.006 1569.9,242.962 1571.6,240.721C1573.3,238.483 1574.62,236.267 1575.54,234.077C1576.47,231.886 1577.05,229.819 1577.29,227.871C1577.54,225.924 1577.66,224.366 1577.66,223.198C1577.66,218.915 1576.95,215.239 1575.54,212.173C1574.13,209.106 1572.19,206.528 1569.7,204.433ZM1439.57,250.797L1449.49,250.797L1449.49,146.533L1439.57,146.533L1439.57,250.797ZM1341.18,146.533L1331.26,146.533L1331.26,250.797L1399.57,250.797L1399.57,242.327L1341.18,242.327L1341.18,146.533ZM1224.84,209.909L1245.72,156.463L1265.86,209.909L1224.84,209.909ZM1240.61,146.533L1198.57,250.797L1209.22,250.797L1221.78,218.379L1269.22,218.379L1281.92,250.797L1292.57,250.797L1251.7,146.533L1240.61,146.533ZM1086.02,165.808L1117.26,165.808L1117.26,250.797L1140.18,250.797L1140.18,165.808L1171.42,165.808L1171.42,146.533L1086.02,146.533L1086.02,165.808ZM1021.94,250.797L1044.85,250.797L1044.85,146.533L1021.94,146.533L1021.94,250.797ZM929.826,206.258L965.299,206.258C965.394,211.807 964.664,216.918 963.109,221.591C961.551,226.264 959.215,230.305 956.102,233.712C952.986,237.121 949.168,239.772 944.643,241.67C940.118,243.569 934.984,244.518 929.243,244.518C922.332,244.518 916.397,243.204 911.434,240.575C906.47,237.947 902.406,234.467 899.245,230.134C896.081,225.803 893.745,220.886 892.238,215.385C890.728,209.886 889.975,204.312 889.975,198.665C889.975,192.922 890.728,187.325 892.238,181.872C893.745,176.421 896.081,171.529 899.245,167.196C902.406,162.865 906.47,159.383 911.434,156.755C916.397,154.126 922.332,152.812 929.243,152.812C934.206,152.812 938.681,153.615 942.672,155.221C946.662,156.828 950.092,158.897 952.964,161.428C955.833,163.96 958.121,166.758 959.825,169.824C961.526,172.891 962.525,175.935 962.817,178.951L972.743,178.951C971.769,173.208 969.993,168.195 967.415,163.91C964.836,159.627 961.624,156.025 957.781,153.104C953.935,150.183 949.581,147.993 944.716,146.533C939.849,145.072 934.692,144.342 929.243,144.342C921.068,144.342 913.89,145.828 907.711,148.796C901.53,151.767 896.398,155.758 892.311,160.771C888.223,165.786 885.158,171.577 883.114,178.148C881.071,184.719 880.049,191.56 880.049,198.665C880.049,205.772 881.071,212.611 883.114,219.182C885.158,225.753 888.223,231.546 892.311,236.559C896.398,241.574 901.53,245.565 907.711,248.534C913.89,251.502 921.068,252.987 929.243,252.987C933.038,252.987 936.71,252.572 940.264,251.746C943.815,250.918 947.147,249.654 950.263,247.95C953.376,246.247 956.223,244.057 958.803,241.378C961.38,238.702 963.547,235.514 965.299,231.813L965.591,231.813L966.904,250.797L974.057,250.797L974.057,197.789L929.826,197.789L929.826,206.258ZM824.142,250.797L834.069,250.797L834.069,146.533L824.142,146.533L824.142,250.797ZM765.753,218.598C764.097,224.099 761.519,228.601 758.016,232.105C754.512,235.61 750.06,238.191 744.659,239.845C739.258,241.501 732.81,242.327 725.317,242.327L704.151,242.327L704.151,155.002L725.317,155.002C732.81,155.002 739.258,155.831 744.659,157.485C750.06,159.141 754.512,161.72 758.016,165.224C761.519,168.729 764.097,173.233 765.753,178.732C767.406,184.233 768.234,190.878 768.234,198.665C768.234,206.455 767.406,213.099 765.753,218.598ZM730.28,146.533L694.224,146.533L694.224,250.797L730.28,250.797C746.046,250.797 757.966,246.416 766.044,237.654C774.121,228.893 778.16,215.896 778.16,198.665C778.16,181.434 774.121,168.437 766.044,159.675C757.966,150.914 746.046,146.533 730.28,146.533ZM615.398,250.797L638.316,250.797L638.316,228.309L615.398,228.309L615.398,250.797ZM560.44,201.878C558.542,199.737 556.448,197.935 554.163,196.474C551.875,195.014 549.587,193.823 547.302,192.897C545.014,191.973 542.85,191.243 540.806,190.706C538.762,190.172 537.106,189.757 535.843,189.465C529.322,187.811 524.042,186.424 520.004,185.303C515.965,184.185 512.801,183.113 510.516,182.091C508.228,181.068 506.696,179.925 505.918,178.659C505.138,177.395 504.75,175.738 504.75,173.694C504.75,171.456 505.236,169.605 506.21,168.145C507.181,166.685 508.422,165.469 509.932,164.494C511.44,163.522 513.117,162.84 514.968,162.45C516.815,162.062 518.666,161.866 520.515,161.866C523.239,161.866 525.818,162.11 528.252,162.596C530.683,163.084 532.825,163.91 534.675,165.078C536.522,166.247 538.007,167.853 539.127,169.897C540.245,171.942 540.902,174.522 541.098,177.637L563.286,177.637C563.286,171.602 562.141,166.466 559.856,162.231C557.568,157.996 554.478,154.516 550.586,151.79C546.693,149.065 542.241,147.094 537.23,145.876C532.216,144.659 526.986,144.05 521.537,144.05C516.866,144.05 512.195,144.685 507.523,145.949C502.852,147.215 498.667,149.161 494.97,151.79C491.27,154.418 488.277,157.704 485.992,161.647C483.704,165.589 482.562,170.24 482.562,175.592C482.562,180.462 483.46,184.55 485.262,187.859C487.062,191.169 489.423,193.944 492.342,196.182C495.262,198.423 498.569,200.223 502.268,201.585C505.966,202.95 509.761,204.166 513.655,205.236C517.45,206.21 521.195,207.135 524.895,208.011C528.592,208.887 531.901,209.934 534.821,211.15C537.74,212.369 540.099,213.852 541.901,215.604C543.7,217.357 544.601,219.645 544.601,222.468C544.601,225.096 543.919,227.264 542.558,228.966C541.194,230.67 539.492,232.01 537.448,232.982C535.405,233.956 533.215,234.613 530.88,234.953C528.544,235.295 526.354,235.464 524.311,235.464C521.293,235.464 518.374,235.099 515.552,234.369C512.728,233.639 510.272,232.521 508.18,231.01C506.087,229.502 504.408,227.531 503.144,225.096C501.878,222.664 501.247,219.693 501.247,216.188L479.058,216.188C478.96,222.614 480.153,228.163 482.635,232.836C485.116,237.508 488.401,241.355 492.488,244.372C496.575,247.391 501.32,249.629 506.721,251.089C512.122,252.549 517.692,253.28 523.435,253.28C530.538,253.28 536.792,252.426 542.193,250.724C547.594,249.022 552.119,246.685 555.768,243.715C559.418,240.746 562.166,237.216 564.016,233.128C565.864,229.039 566.79,224.61 566.79,219.839C566.79,215.848 566.206,212.392 565.038,209.471C563.87,206.55 562.337,204.02 560.44,201.878ZM375.27,210.493L388.846,172.234L389.138,172.234L402.275,210.493L375.27,210.493ZM377.46,146.533L337.9,250.797L361.11,250.797L369.285,227.579L408.26,227.579L416.143,250.797L439.937,250.797L400.962,146.533L377.46,146.533Z" style="fill-rule:nonzero;"/>
                    <path d="M140.003,338.681L140.003,255.375L254.526,255.375L140.003,338.681ZM134.003,26.039L134.003,134.509L61.754,198.647L51.737,179.702L134.003,26.039ZM177.96,95.486L140.003,129.182L140.003,24.584L177.96,95.486ZM141.345,136.014L180.872,100.924L251.856,233.516L141.345,136.014ZM140.003,142.831L259.974,248.68L260.346,249.375L140.003,249.375L140.003,142.831ZM84.963,255.375L125.406,331.861L20.259,255.375L84.963,255.375ZM23.336,232.752L48.323,186.08L57.135,202.747L23.336,232.752ZM81.79,249.375L14.437,249.375L15.151,248.042L60.022,208.207L81.79,249.375ZM134.003,255.375L134.003,335.284L91.75,255.375L134.003,255.375ZM88.577,249.375L64.641,204.107L134.003,142.532L134.003,249.375L88.577,249.375ZM274.073,249.591L142.682,4.164C141.638,2.213 139.605,0.995 137.392,0.995C135.18,0.995 133.146,2.213 132.102,4.164L0.71,249.591C-0.703,252.232 0.047,255.513 2.47,257.274L133.862,352.851C134.915,353.617 136.153,354 137.392,354C138.631,354 139.87,353.617 140.922,352.851L272.312,257.274C274.736,255.513 275.487,252.232 274.073,249.591Z" style="fill-rule:nonzero;"/>
                </g>
            </g>
        </g>
    </g>
</svg>
