<?xml version="1.0" encoding="UTF-8" standalone="no"?>
<!DOCTYPE svg PUBLIC "-//W3C//DTD SVG 1.1//EN" "http://www.w3.org/Graphics/SVG/1.1/DTD/svg11.dtd">
<svg width="100%" height="100%" viewBox="0 0 575 175" version="1.1" xmlns="http://www.w3.org/2000/svg" xmlns:xlink="http://www.w3.org/1999/xlink" xml:space="preserve" xmlns:serif="http://www.serif.com/" style="fill-rule:evenodd;clip-rule:evenodd;stroke-linejoin:round;stroke-miterlimit:1.41421;">
    <g transform="matrix(0.739664,0,0,0.739664,-483.925,-582.409)">
        <g id="BoundingBox" transform="matrix(1,0,0,1,664.628,796.769)">
            <rect x="0" y="0" width="750" height="100" style="fill:none;"/>
        </g>
        <g transform="matrix(1,0,0,1,664.628,796.769)">
            <path d="M676.825,22.711L676.825,40.058L669.467,40.058C662.756,40.058 659.944,43.003 659.944,50.021L659.944,78.01L640.993,78.01L640.993,22.975L653.687,22.975L656.647,29.082C660.526,24.593 665.257,22.711 671.806,22.711L676.825,22.711ZM591.725,44.491L613.97,44.491C612.306,38.991 608.341,36.023 602.625,36.023C597.096,36.023 593.258,39.026 591.725,44.491ZM632.249,54.99L591.388,54.99C592.628,61.305 596.638,64.567 602.625,64.567C607.052,64.567 610.749,62.628 612.574,59.403L631.437,59.403C627.564,71.964 616.43,79.812 602.625,79.812C585.455,79.812 572.729,67.262 572.729,50.446C572.729,33.577 585.352,21.172 602.625,21.172C620.36,21.172 632.642,33.827 632.642,49.969C632.642,51.628 632.497,53.288 632.249,54.99ZM547.019,48.889C547.019,41.941 542.133,36.895 535.312,36.895C528.505,36.895 523.564,41.941 523.564,48.889C523.564,55.903 528.446,60.947 535.309,60.947C542.116,60.947 547.019,55.903 547.019,48.889ZM564.743,22.975L564.743,71.895C564.743,89.185 553.419,99.9 535.243,99.9C519.63,99.9 508.699,92.028 506.163,78.985L524.453,78.985C525.77,82.665 530.465,84.645 535.067,84.645C541.42,84.645 546.525,80.608 546.525,74.062L546.525,72.422C542.388,75.047 537.478,76.556 532.163,76.556C516.389,76.556 504.661,64.815 504.661,48.889C504.661,33.198 516.389,21.213 532.163,21.213C538.826,21.213 544.858,23.604 549.522,27.592L551.928,22.975L564.743,22.975ZM475.695,21.349C468.581,21.349 462.47,24.083 458.373,28.649L455.769,22.975L442.475,22.975L442.475,78.01L461.429,78.01L461.429,48.619C461.429,41.615 464.826,37.487 470.737,37.487C475.509,37.487 477.917,40.666 477.917,47.068L477.917,78.01L496.872,78.01L496.872,44.45C496.872,30.43 488.477,21.349 475.695,21.349ZM411.865,22.972L430.819,22.972L430.819,78.007L411.865,78.007L411.865,22.972ZM412.01,0L430.672,0L430.672,16.09L412.01,16.09L412.01,0ZM399.628,22.711C393.075,22.711 388.349,24.593 384.47,29.082L381.514,22.975L368.812,22.975L368.812,78.01L387.77,78.01L387.77,50.021C387.77,43.003 390.581,40.058 397.292,40.058L404.648,40.058L404.648,22.711L399.628,22.711ZM341.692,50.487C341.692,43.261 336.473,37.896 329.373,37.896C322.273,37.896 317.053,43.261 317.053,50.487C317.053,57.719 322.273,63.086 329.373,63.086C336.428,63.086 341.692,57.719 341.692,50.487ZM360.764,50.491C360.764,67.637 348.734,79.871 331.908,79.871C326.934,79.871 322.376,78.562 318.493,76.215L318.493,97.881L299.756,97.881L299.756,22.975L312.644,22.975L315.017,27.347C319.544,23.434 325.369,21.17 331.908,21.17C348.734,21.17 360.764,33.343 360.764,50.491ZM267.341,79.812C281.969,79.812 291.673,72.285 291.673,60.785C291.673,46.827 280.115,45.02 271.423,43.475C266.193,42.546 261.983,41.814 261.983,38.683C261.983,36.134 264.026,34.628 267.065,34.628C270.5,34.628 272.863,36.263 272.863,39.777L290.612,39.777C290.398,28.625 281.313,21.17 267.3,21.17C253.199,21.17 243.801,28.292 243.801,39.322C243.801,52.67 255.11,55.245 263.645,56.63C268.933,57.505 273.098,58.411 273.098,61.584C273.098,64.43 270.469,65.842 267.699,65.842C264.103,65.842 261.302,63.989 261.302,59.965L243.057,59.965C243.229,71.892 252.345,79.812 267.341,79.812ZM194.302,78.01L213.257,78.01L213.257,3.102L194.302,3.102L194.302,78.01ZM145.03,44.491L167.278,44.491C165.615,38.991 161.649,36.023 155.931,36.023C150.405,36.023 146.564,39.026 145.03,44.491ZM185.562,54.99L144.696,54.99C145.937,61.305 149.946,64.567 155.931,64.567C160.361,64.567 164.058,62.628 165.88,59.403L184.745,59.403C180.869,71.964 169.738,79.812 155.931,79.812C138.761,79.812 126.041,67.262 126.041,50.446C126.041,33.577 138.66,21.172 155.931,21.172C173.669,21.172 185.951,33.827 185.951,49.969C185.951,51.628 185.807,53.288 185.562,54.99ZM127.316,78.01L109.029,48.958L126.083,22.975L105.454,22.975L97.137,36.833L89.189,22.975L68.264,22.975L85.179,49.456L66.927,78.01L87.859,78.01L97.089,61.708L106.136,78.01L127.316,78.01ZM43.808,50.476C43.808,43.334 38.588,37.968 31.488,37.968C24.346,37.968 19.172,43.334 19.172,50.476C19.172,57.664 24.391,63.027 31.488,63.027C38.588,63.027 43.808,57.664 43.808,50.476ZM61.835,22.915L61.835,77.948L47.184,77.948L45.561,74.055C41.051,77.707 35.346,79.812 28.956,79.812C12.126,79.812 0.1,67.534 0.1,50.431C0.1,33.388 12.126,21.256 28.956,21.256C35.436,21.256 41.227,23.423 45.771,27.171L47.707,22.915L61.835,22.915Z" style="fill-rule:nonzero;"/>
        </g>
        <g transform="matrix(1,0,0,1,664.628,796.769)">
            <path d="M687.887,77.941L749.995,77.941L749.995,63.996L687.887,63.996L687.887,77.941Z" style="fill:rgb(0,0,255);fill-rule:nonzero;"/>
        </g>
    </g>
    <g transform="matrix(1,0,0,1,-11.5017,-0.00668722)">
        <g transform="matrix(75,0,0,75,13.2538,153.479)">
            <path d="M0.088,-0.652L0.149,-0.652L0.149,-0.721L0.088,-0.721L0.088,-0.652ZM0.094,0L0.143,0L0.143,-0.54L0.094,-0.54L0.094,0Z" style="fill:rgb(35,31,32);fill-rule:nonzero;"/>
        </g>
        <g transform="matrix(75,0,0,75,31.0288,153.479)">
            <path d="M0.309,-0.046C0.229,-0.046 0.183,-0.093 0.183,-0.174L0.183,-0.496L0.372,-0.496L0.372,-0.538L0.183,-0.538L0.183,-0.698L0.134,-0.698L0.134,-0.538L0.013,-0.538L0.013,-0.496L0.134,-0.496L0.134,-0.172C0.134,-0.065 0.199,0 0.304,0L0.377,0L0.377,-0.046L0.309,-0.046Z" style="fill:rgb(35,31,32);fill-rule:nonzero;"/>
        </g>
        <g transform="matrix(75,0,0,75,59.9038,153.479)">
            <rect x="0.073" y="-0.303" width="0.313" height="0.048" style="fill:rgb(35,31,32);fill-rule:nonzero;"/>
        </g>
        <g transform="matrix(75,0,0,75,93.8788,153.479)">
            <path d="M0.254,0.011C0.378,0.011 0.461,-0.052 0.461,-0.147C0.461,-0.271 0.353,-0.29 0.259,-0.305C0.176,-0.319 0.104,-0.331 0.104,-0.405C0.104,-0.466 0.161,-0.507 0.25,-0.507C0.341,-0.507 0.396,-0.465 0.401,-0.395L0.448,-0.395C0.443,-0.491 0.368,-0.551 0.251,-0.551C0.135,-0.551 0.056,-0.491 0.056,-0.403C0.056,-0.292 0.155,-0.275 0.248,-0.259C0.332,-0.244 0.413,-0.229 0.413,-0.146C0.413,-0.078 0.349,-0.035 0.256,-0.035C0.162,-0.035 0.101,-0.078 0.093,-0.153L0.045,-0.153C0.053,-0.052 0.131,0.011 0.254,0.011L0.254,0.011Z" style="fill:rgb(35,31,32);fill-rule:nonzero;"/>
        </g>
        <g transform="matrix(75,0,0,75,131.979,153.479)">
            <path d="M0.588,-0.272C0.588,-0.428 0.479,-0.551 0.321,-0.551C0.166,-0.551 0.048,-0.43 0.048,-0.271C0.048,-0.11 0.166,0.011 0.321,0.011C0.433,0.011 0.523,-0.049 0.572,-0.157L0.52,-0.157C0.48,-0.082 0.409,-0.037 0.321,-0.037C0.197,-0.037 0.105,-0.127 0.097,-0.253L0.587,-0.253C0.588,-0.259 0.588,-0.266 0.588,-0.272L0.588,-0.272ZM0.321,-0.504C0.438,-0.504 0.528,-0.422 0.54,-0.299L0.098,-0.299C0.11,-0.419 0.2,-0.504 0.321,-0.504L0.321,-0.504Z" style="fill:rgb(35,31,32);fill-rule:nonzero;"/>
        </g>
        <g transform="matrix(75,0,0,75,179.529,153.479)">
            <path d="M0.324,-0.542C0.238,-0.542 0.175,-0.501 0.139,-0.433L0.131,-0.54L0.094,-0.54L0.094,0L0.143,0L0.143,-0.301C0.143,-0.415 0.212,-0.495 0.321,-0.495L0.371,-0.495L0.371,-0.542L0.324,-0.542Z" style="fill:rgb(35,31,32);fill-rule:nonzero;"/>
        </g>
        <g transform="matrix(75,0,0,75,208.179,153.479)">
            <path d="M0.492,-0.54L0.285,-0.066L0.073,-0.54L0.022,-0.54L0.263,0L0.306,0L0.543,-0.54L0.492,-0.54Z" style="fill:rgb(35,31,32);fill-rule:nonzero;"/>
        </g>
        <g transform="matrix(75,0,0,75,250.704,153.479)">
            <path d="M0.088,-0.652L0.149,-0.652L0.149,-0.721L0.088,-0.721L0.088,-0.652ZM0.094,0L0.143,0L0.143,-0.54L0.094,-0.54L0.094,0Z" style="fill:rgb(35,31,32);fill-rule:nonzero;"/>
        </g>
        <g transform="matrix(75,0,0,75,268.479,153.479)">
            <path d="M0.326,0.011C0.447,0.011 0.545,-0.059 0.583,-0.169L0.533,-0.169C0.495,-0.085 0.418,-0.037 0.326,-0.037C0.197,-0.037 0.098,-0.138 0.098,-0.27C0.098,-0.403 0.196,-0.503 0.326,-0.503C0.419,-0.503 0.496,-0.454 0.532,-0.373L0.581,-0.373C0.545,-0.48 0.449,-0.551 0.326,-0.551C0.168,-0.551 0.048,-0.431 0.048,-0.27C0.048,-0.11 0.168,0.011 0.326,0.011L0.326,0.011Z" style="fill:rgb(35,31,32);fill-rule:nonzero;"/>
        </g>
        <g transform="matrix(75,0,0,75,314.904,153.479)">
            <path d="M0.588,-0.272C0.588,-0.428 0.479,-0.551 0.321,-0.551C0.166,-0.551 0.048,-0.43 0.048,-0.271C0.048,-0.11 0.166,0.011 0.321,0.011C0.433,0.011 0.523,-0.049 0.572,-0.157L0.52,-0.157C0.48,-0.082 0.409,-0.037 0.321,-0.037C0.197,-0.037 0.105,-0.127 0.097,-0.253L0.587,-0.253C0.588,-0.259 0.588,-0.266 0.588,-0.272L0.588,-0.272ZM0.321,-0.504C0.438,-0.504 0.528,-0.422 0.54,-0.299L0.098,-0.299C0.11,-0.419 0.2,-0.504 0.321,-0.504L0.321,-0.504Z" style="fill:rgb(35,31,32);fill-rule:nonzero;"/>
        </g>
        <g transform="matrix(75,0,0,75,362.454,153.479)">
            <path d="M0.254,0.011C0.378,0.011 0.461,-0.052 0.461,-0.147C0.461,-0.271 0.353,-0.29 0.259,-0.305C0.176,-0.319 0.104,-0.331 0.104,-0.405C0.104,-0.466 0.161,-0.507 0.25,-0.507C0.341,-0.507 0.396,-0.465 0.401,-0.395L0.448,-0.395C0.443,-0.491 0.368,-0.551 0.251,-0.551C0.135,-0.551 0.056,-0.491 0.056,-0.403C0.056,-0.292 0.155,-0.275 0.248,-0.259C0.332,-0.244 0.413,-0.229 0.413,-0.146C0.413,-0.078 0.349,-0.035 0.256,-0.035C0.162,-0.035 0.101,-0.078 0.093,-0.153L0.045,-0.153C0.053,-0.052 0.131,0.011 0.254,0.011L0.254,0.011Z" style="fill:rgb(35,31,32);fill-rule:nonzero;"/>
        </g>
    </g>
</svg>
