<svg version="1.1" viewBox="0.000000 0.000000 194.000000 51.000000" xmlns="http://www.w3.org/2000/svg" xmlns:xlink="http://www.w3.org/1999/xlink" stroke-linejoin="round" stroke-miterlimit="1.414210" fill-rule="evenodd" clip-rule="evenodd" overflow="hidden"><g id="_51x195-combination"><g id="Logo"><path d=" M 36.750000 7.130000 C 34.515999 7.130000 32.703999 8.970000 32.703999 11.241000 C 32.703999 13.511000 34.515999 15.351000 36.750000 15.351000 C 38.984001 15.351000 40.796001 13.511000 40.796001 11.241000 C 40.796001 8.970000 38.984001 7.130000 36.750000 7.130000" id="Fill-1" fill="#FFFFFF"/><path d=" M 36.750000 18.091999 C 33.026001 18.091999 30.007000 15.025000 30.007000 11.241000 C 30.007000 7.457000 33.026001 4.388000 36.750000 4.388000 C 40.473999 4.388000 43.493000 7.457000 43.493000 11.241000 C 43.493000 15.025000 40.473999 18.091999 36.750000 18.091999 M 47.000000 0.001000 L 26.500000 0.001000 C 25.947001 0.001000 25.500000 0.448000 25.500000 1.000000 L 25.500000 21.481001 C 25.500000 22.033001 25.947001 22.481001 26.500000 22.481001 L 47.000000 22.481001 C 47.553001 22.481001 48.000000 22.033001 48.000000 21.481001 L 48.000000 1.000000 C 48.000000 0.448000 47.553001 0.001000 47.000000 0.001000" id="Fill-3" fill="#FFFFFF"/><path d=" M 9.650000 17.634001 L 12.850000 17.634001 L 12.850000 4.845000 L 9.650000 4.845000 L 9.650000 17.634001 Z M 21.500000 0.000000 L 1.000000 0.000000 C 0.447000 0.000000 0.000000 0.447000 0.000000 1.000000 L 0.000000 21.480000 C 0.000000 22.033001 0.447000 22.480000 1.000000 22.480000 L 21.500000 22.480000 C 22.052999 22.480000 22.500000 22.033001 22.500000 21.480000 L 22.500000 1.000000 C 22.500000 0.447000 22.052999 0.000000 21.500000 0.000000 Z" id="Fill-5" fill="#FFFFFF"/><path d=" M 11.250000 32.606998 C 9.016000 32.606998 7.204000 34.446999 7.204000 36.717999 C 7.204000 38.987999 9.016000 40.828999 11.250000 40.828999 C 13.484000 40.828999 15.296000 38.987999 15.296000 36.717999 C 15.296000 34.446999 13.484000 32.606998 11.250000 32.606998" id="Fill-7" fill="#FFFFFF"/><path d=" M 11.250000 43.569000 C 7.526000 43.569000 4.507000 40.501999 4.507000 36.717999 C 4.507000 32.933998 7.526000 29.867001 11.250000 29.867001 C 14.974000 29.867001 17.993000 32.933998 17.993000 36.717999 C 17.993000 40.501999 14.974000 43.569000 11.250000 43.569000 M 21.500000 25.478001 L 1.000000 25.478001 C 0.447000 25.478001 0.000000 25.924999 0.000000 26.476999 L 0.000000 46.959000 C 0.000000 47.511002 0.447000 47.958000 1.000000 47.958000 L 21.500000 47.958000 C 22.052999 47.958000 22.500000 47.511002 22.500000 46.959000 L 22.500000 26.476999 C 22.500000 25.924999 22.052999 25.478001 21.500000 25.478001" id="Fill-8" fill="#FFFFFF"/><path d=" M 35.150002 43.112000 L 38.349998 43.112000 L 38.349998 30.323000 L 35.150002 30.323000 L 35.150002 43.112000 Z M 47.000000 25.478001 L 26.500000 25.478001 C 25.947001 25.478001 25.500000 25.924999 25.500000 26.476999 L 25.500000 46.958000 C 25.500000 47.511002 25.947001 47.958000 26.500000 47.958000 L 47.000000 47.958000 C 47.553001 47.958000 48.000000 47.511002 48.000000 46.958000 L 48.000000 26.476999 C 48.000000 25.924999 47.553001 25.478001 47.000000 25.478001 Z" id="Fill-9" fill="#FFFFFF"/></g><g id="Font" transform="matrix(1.000000,0.000000,0.000000,1.000000,55.000000,2.000000)"><path d=" M 0.909000 18.955999 L 2.911000 18.955999 L 2.911000 0.755000 L 0.909000 0.755000 L 0.909000 18.955999 Z" id="Fill-10" fill="#FFFFFF"/><path d=" M 9.437000 13.990000 C 9.437000 16.226000 10.997000 17.344000 12.739000 17.344000 C 14.481000 17.344000 16.041000 16.226000 16.041000 13.990000 L 16.041000 10.402000 C 16.041000 8.166000 14.481000 7.048000 12.739000 7.048000 C 10.997000 7.048000 9.437000 8.166000 9.437000 10.402000 L 9.437000 13.990000 Z M 7.487000 13.964000 L 7.487000 10.428000 C 7.487000 6.476000 10.243000 5.176000 12.739000 5.176000 C 13.961000 5.176000 15.365000 5.722000 16.041000 6.814000 L 16.041000 0.755000 L 17.990999 0.755000 L 17.990999 18.955999 L 16.041000 18.955999 L 16.041000 17.577999 C 15.365000 18.670000 13.961000 19.216999 12.739000 19.216999 C 10.243000 19.216999 7.487000 17.916000 7.487000 13.964000 Z" id="Fill-11" fill="#FFFFFF"/><path d=" M 30.992001 10.402000 C 30.992001 8.166000 29.431000 7.048000 27.690001 7.048000 C 25.948000 7.048000 24.388000 8.166000 24.388000 10.402000 L 24.388000 10.896000 L 30.992001 10.896000 L 30.992001 10.402000 Z M 30.914000 14.744000 L 32.916000 14.744000 C 32.577999 18.098000 30.030001 19.216000 27.690001 19.216000 C 25.194000 19.216000 22.437000 17.916000 22.437000 13.964000 L 22.437000 10.428000 C 22.437000 6.476000 25.194000 5.175000 27.690001 5.175000 C 30.186001 5.175000 32.942001 6.476000 32.942001 10.428000 L 32.942001 12.690000 L 24.388000 12.690000 L 24.388000 13.990000 C 24.388000 16.226000 25.948000 17.344000 27.690001 17.344000 C 29.223000 17.344000 30.601999 16.486000 30.914000 14.744000 Z" id="Fill-12" fill="#FFFFFF"/><path d=" M 45.291000 12.378000 C 42.353001 12.586000 40.688999 12.768000 39.778999 13.262000 C 38.791000 13.808000 38.609001 14.406000 38.609001 15.186000 C 38.609001 16.408001 39.544998 17.344000 41.521000 17.344000 C 43.626999 17.344000 45.291000 16.226000 45.291000 14.120000 L 45.291000 12.378000 Z M 38.764999 9.648000 L 36.763000 9.648000 C 37.101002 6.294000 39.648998 5.175000 41.988998 5.175000 C 44.485001 5.175000 47.241001 6.476000 47.241001 10.428000 L 47.241001 18.955999 L 45.291000 18.955999 L 45.291000 17.577999 C 44.432999 18.695999 42.924999 19.216000 41.105000 19.216000 C 38.817001 19.216000 36.659000 17.993999 36.659000 15.238000 C 36.659000 13.886000 37.230999 12.066000 39.570999 11.390000 C 41.105000 10.948000 43.028999 10.792000 45.291000 10.636000 L 45.291000 10.402000 C 45.291000 8.166000 43.730999 7.047000 41.988998 7.047000 C 40.455002 7.047000 39.077000 7.906000 38.764999 9.648000 Z" id="Fill-13" fill="#FFFFFF"/><path d=" M 58.707001 9.466000 C 58.472000 7.906000 57.431999 7.048000 55.769001 7.048000 C 54.313000 7.048000 53.247002 7.776000 53.247002 8.998000 C 53.247002 10.116000 54.000999 10.610000 55.092999 10.870000 L 57.615002 11.493000 C 59.644001 11.988000 61.047001 13.002000 61.047001 15.472000 C 61.047001 18.124001 59.044998 19.216000 56.314999 19.216000 C 53.507000 19.216000 51.140999 17.916000 50.932999 14.666000 L 52.935001 14.666000 C 53.117001 16.563999 54.521000 17.344000 56.314999 17.344000 C 58.187000 17.344000 59.044998 16.590000 59.070999 15.419000 C 59.070999 14.562000 58.681000 13.807000 57.199001 13.444000 L 54.573002 12.794000 C 53.117001 12.456000 51.271000 11.468000 51.271000 9.076000 C 51.271000 6.606000 53.325001 5.175000 55.794998 5.175000 C 58.499001 5.175000 60.500999 6.476000 60.709000 9.466000 L 58.707001 9.466000 Z" id="Fill-14" fill="#FFFFFF"/><path d=" M 2.911000 41.980000 L 11.257000 41.980000 L 11.257000 43.956001 L 0.909000 43.956001 L 0.909000 25.754999 L 11.257000 25.754999 L 11.257000 27.731001 L 2.911000 27.731001 L 2.911000 33.764000 L 11.257000 33.764000 L 11.257000 35.740002 L 2.911000 35.740002 L 2.911000 41.980000 Z" id="Fill-15" fill="#FFFFFF"/><path d=" M 26.285999 35.426998 L 26.285999 43.955002 L 24.336000 43.955002 L 24.336000 35.401001 C 24.336000 33.165001 22.775999 32.047001 21.034000 32.047001 C 19.292000 32.047001 17.731001 33.165001 17.731001 35.401001 L 17.731001 43.955002 L 15.782000 43.955002 L 15.782000 30.539000 L 17.731001 30.539000 L 17.731001 31.813000 C 18.408001 30.721001 19.811001 30.174999 21.034000 30.174999 C 23.530001 30.174999 26.285999 31.475000 26.285999 35.426998" id="Fill-16" fill="#FFFFFF"/><path d=" M 32.473000 38.469002 C 32.473000 40.705002 34.033001 41.823002 35.775002 41.823002 C 37.516998 41.823002 39.077000 40.705002 39.077000 38.469002 L 39.077000 35.401001 C 39.077000 33.165001 37.516998 32.047001 35.775002 32.047001 C 34.033001 32.047001 32.473000 33.165001 32.473000 35.401001 L 32.473000 38.469002 Z M 39.077000 43.772999 L 39.077000 42.056999 C 38.401001 43.148998 36.997002 43.695000 35.775002 43.695000 C 33.278999 43.695000 30.523001 42.395000 30.523001 38.443001 L 30.523001 35.426998 C 30.523001 31.475000 33.278999 30.174999 35.775002 30.174999 C 36.997002 30.174999 38.401001 30.721001 39.077000 31.813000 L 39.077000 30.539000 L 41.027000 30.539000 L 41.027000 43.747002 C 41.027000 47.724998 38.271000 49.000000 35.775002 49.000000 C 33.409000 49.000000 30.834999 47.855000 30.549000 44.396999 L 32.525002 44.396999 C 32.785000 46.217999 34.215000 47.127998 35.775002 47.127998 C 37.516998 47.127998 39.077000 46.009998 39.077000 43.772999 Z" id="Fill-17" fill="#FFFFFF"/><path d=" M 45.837002 43.956001 L 47.786999 43.956001 L 47.786999 30.539000 L 45.837002 30.539000 L 45.837002 43.956001 Z M 45.837002 28.277000 L 47.786999 28.277000 L 47.786999 25.754999 L 45.837002 25.754999 L 45.837002 28.277000 Z" id="Fill-18" fill="#FFFFFF"/><path d=" M 63.101002 35.426998 L 63.101002 43.955002 L 61.151001 43.955002 L 61.151001 35.401001 C 61.151001 33.165001 59.591000 32.047001 57.848999 32.047001 C 56.105999 32.047001 54.547001 33.165001 54.547001 35.401001 L 54.547001 43.955002 L 52.597000 43.955002 L 52.597000 30.539000 L 54.547001 30.539000 L 54.547001 31.813000 C 55.223000 30.721001 56.626999 30.174999 57.848999 30.174999 C 60.345001 30.174999 63.101002 31.475000 63.101002 35.426998" id="Fill-19" fill="#FFFFFF"/><path d=" M 75.918999 35.402000 C 75.918999 33.166000 74.359001 32.048000 72.616997 32.048000 C 70.875000 32.048000 69.315002 33.166000 69.315002 35.402000 L 69.315002 35.896000 L 75.918999 35.896000 L 75.918999 35.402000 Z M 75.841003 39.743999 L 77.843002 39.743999 C 77.503998 43.098000 74.957001 44.216000 72.616997 44.216000 C 70.121002 44.216000 67.364998 42.916000 67.364998 38.964001 L 67.364998 35.428001 C 67.364998 31.476000 70.121002 30.174999 72.616997 30.174999 C 75.112999 30.174999 77.869003 31.476000 77.869003 35.428001 L 77.869003 37.689999 L 69.315002 37.689999 L 69.315002 38.990002 C 69.315002 41.226002 70.875000 42.344002 72.616997 42.344002 C 74.150002 42.344002 75.528000 41.486000 75.841003 39.743999 Z" id="Fill-20" fill="#FFFFFF"/><path d=" M 90.375000 35.402000 C 90.375000 33.166000 88.814003 32.048000 87.072998 32.048000 C 85.331001 32.048000 83.771004 33.166000 83.771004 35.402000 L 83.771004 35.896000 L 90.375000 35.896000 L 90.375000 35.402000 Z M 90.296997 39.743999 L 92.299004 39.743999 C 91.960999 43.098000 89.412003 44.216000 87.072998 44.216000 C 84.577003 44.216000 81.820000 42.916000 81.820000 38.964001 L 81.820000 35.428001 C 81.820000 31.476000 84.577003 30.174999 87.072998 30.174999 C 89.569000 30.174999 92.324997 31.476000 92.324997 35.428001 L 92.324997 37.689999 L 83.771004 37.689999 L 83.771004 38.990002 C 83.771004 41.226002 85.331001 42.344002 87.072998 42.344002 C 88.606003 42.344002 89.985001 41.486000 90.296997 39.743999 Z" id="Fill-21" fill="#FFFFFF"/><path d=" M 98.589996 31.944000 C 99.265999 30.851999 100.669998 30.306000 101.891998 30.306000 L 102.750000 30.306000 L 102.750000 32.178001 L 101.891998 32.178001 C 100.150002 32.178001 98.589996 33.296001 98.589996 35.532001 L 98.589996 43.956001 L 96.639999 43.956001 L 96.639999 30.540001 L 98.589996 30.540001 L 98.589996 31.944000 Z" id="Fill-22" fill="#FFFFFF"/><path d=" M 106.052002 43.956001 L 108.001999 43.956001 L 108.001999 30.539000 L 106.052002 30.539000 L 106.052002 43.956001 Z M 106.052002 28.277000 L 108.001999 28.277000 L 108.001999 25.754999 L 106.052002 25.754999 L 106.052002 28.277000 Z" id="Fill-23" fill="#FFFFFF"/><path d=" M 123.316002 35.426998 L 123.316002 43.955002 L 121.365997 43.955002 L 121.365997 35.401001 C 121.365997 33.165001 119.806000 32.047001 118.064003 32.047001 C 116.320999 32.047001 114.762001 33.165001 114.762001 35.401001 L 114.762001 43.955002 L 112.811996 43.955002 L 112.811996 30.539000 L 114.762001 30.539000 L 114.762001 31.813000 C 115.438004 30.721001 116.842003 30.174999 118.064003 30.174999 C 120.559998 30.174999 123.316002 31.475000 123.316002 35.426998" id="Fill-24" fill="#FFFFFF"/><path d=" M 129.503998 38.469002 C 129.503998 40.705002 131.063995 41.823002 132.806000 41.823002 C 134.548004 41.823002 136.108002 40.705002 136.108002 38.469002 L 136.108002 35.401001 C 136.108002 33.165001 134.548004 32.047001 132.806000 32.047001 C 131.063995 32.047001 129.503998 33.165001 129.503998 35.401001 L 129.503998 38.469002 Z M 136.108002 43.772999 L 136.108002 42.056999 C 135.432007 43.148998 134.028000 43.695000 132.806000 43.695000 C 130.309998 43.695000 127.554001 42.395000 127.554001 38.443001 L 127.554001 35.426998 C 127.554001 31.475000 130.309998 30.174999 132.806000 30.174999 C 134.028000 30.174999 135.432007 30.721001 136.108002 31.813000 L 136.108002 30.539000 L 138.057999 30.539000 L 138.057999 43.747002 C 138.057999 47.724998 135.302002 49.000000 132.806000 49.000000 C 130.440002 49.000000 127.865997 47.855000 127.580002 44.396999 L 129.556000 44.396999 C 129.815994 46.217999 131.246002 47.127998 132.806000 47.127998 C 134.548004 47.127998 136.108002 46.009998 136.108002 43.772999 Z" id="Fill-25" fill="#FFFFFF"/></g></g></svg>