<svg xmlns="http://www.w3.org/2000/svg" viewBox="0 0 374.58 102.12"><defs><style>.cls-1{fill:#121211;}.cls-2{fill:#fff;}</style></defs><title>Logo mit Schrift Schwarz</title><g id="Layer_2" data-name="Layer 2"><g id="Logo_mit_Schrift_Schwarz" data-name="Logo mit Schrift Schwarz"><g id="font_pfade" data-name="font pfade"><path class="cls-1" d="M113.72,8.88h4v36h-4Z"/><path class="cls-1" d="M125.7,35V28c0-7.81,5.45-10.38,10.38-10.38a7.79,7.79,0,0,1,6.53,3.24v-12h3.86v36h-3.86V42.14a7.79,7.79,0,0,1-6.53,3.24C131.15,45.38,125.7,42.81,125.7,35Zm3.85,0a6.53,6.53,0,1,0,13.06,0V28a6.53,6.53,0,1,0-13.06,0Z"/><path class="cls-1" d="M171,36.53h4c-.67,6.64-5.7,8.85-10.33,8.85-4.94,0-10.39-2.57-10.39-10.39V28c0-7.81,5.45-10.38,10.39-10.38S175,20.19,175,28v4.47H158.08V35a6.23,6.23,0,0,0,6.53,6.64A6.11,6.11,0,0,0,171,36.53Zm.16-8.58a6.53,6.53,0,1,0-13.06,0v1h13.06Z"/><path class="cls-1" d="M185.48,26.46h-4c.67-6.63,5.7-8.84,10.33-8.84,4.94,0,10.39,2.57,10.39,10.38V44.86h-3.86V42.14c-1.7,2.21-4.68,3.24-8.28,3.24-4.52,0-8.79-2.42-8.79-7.87a7.5,7.5,0,0,1,5.76-7.61,58,58,0,0,1,11.31-1.49V28a6.22,6.22,0,0,0-6.53-6.63A6.1,6.1,0,0,0,185.48,26.46Zm12.9,5.4c-5.81.41-9.1.77-10.9,1.74a3.8,3.8,0,0,0-2.31,3.81c0,2.41,1.85,4.27,5.76,4.27,4.16,0,7.45-2.22,7.45-6.38Z"/><path class="cls-1" d="M223.87,26.1c-.46-3.09-2.51-4.78-5.8-4.78-2.88,0-5,1.44-5,3.85,0,2.21,1.49,3.19,3.65,3.71l5,1.23c4,1,6.78,3,6.78,7.86,0,5.25-4,7.41-9.35,7.41-5.56,0-10.23-2.57-10.65-9h4c.36,3.75,3.14,5.3,6.69,5.3s5.39-1.5,5.44-3.81c0-1.7-.77-3.19-3.7-3.91l-5.19-1.28c-2.88-.67-6.53-2.62-6.53-7.35,0-4.89,4.06-7.71,9-7.71,5.34,0,9.3,2.57,9.71,8.48Z"/><path class="cls-1" d="M117.68,88.24h16.5v3.91H113.72v-36h20.46v3.9h-16.5V72h16.5v3.91h-16.5Z"/><path class="cls-1" d="M162.86,75.29V92.15H159V75.24a6.53,6.53,0,1,0-13.06,0V92.15h-3.86V65.63H146v2.51a7.8,7.8,0,0,1,6.53-3.23C157.41,64.91,162.86,67.48,162.86,75.29Z"/><path class="cls-1" d="M187.12,91.79V88.4a7.77,7.77,0,0,1-6.53,3.24c-4.93,0-10.38-2.57-10.38-10.39v-6c0-7.81,5.45-10.38,10.38-10.38a7.79,7.79,0,0,1,6.53,3.23V65.63H191V91.74c0,7.87-5.45,10.38-10.39,10.38-4.67,0-9.76-2.26-10.33-9.09h3.91a6.14,6.14,0,0,0,6.42,5.39A6.22,6.22,0,0,0,187.12,91.79ZM174.07,81.3a6.53,6.53,0,1,0,13.05,0V75.24a6.53,6.53,0,1,0-13.05,0Z"/><path class="cls-1" d="M203.31,61.15h-3.85v-5h3.85Zm0,31h-3.85V65.63h3.85Z"/><path class="cls-1" d="M232.56,75.29V92.15h-3.85V75.24a6.53,6.53,0,1,0-13.06,0V92.15h-3.86V65.63h3.86v2.51a7.8,7.8,0,0,1,6.53-3.23C227.11,64.91,232.56,67.48,232.56,75.29Z"/><path class="cls-1" d="M256.72,83.82h4c-.67,6.64-5.71,8.85-10.34,8.85-4.93,0-10.38-2.57-10.38-10.39v-7c0-7.81,5.45-10.38,10.38-10.38s10.39,2.57,10.39,10.38v4.47H243.82v2.57A6.22,6.22,0,0,0,250.34,89,6.11,6.11,0,0,0,256.72,83.82Zm.15-8.58a6.53,6.53,0,1,0-13.05,0v1h13.05Z"/><path class="cls-1" d="M284.27,83.82h4c-.67,6.64-5.71,8.85-10.33,8.85-4.94,0-10.39-2.57-10.39-10.39v-7c0-7.81,5.45-10.38,10.39-10.38s10.38,2.57,10.38,10.38v4.47H271.37v2.57A6.22,6.22,0,0,0,277.9,89,6.1,6.1,0,0,0,284.27,83.82Zm.15-8.58a6.53,6.53,0,1,0-13.05,0v1h13.05Z"/><path class="cls-1" d="M299.64,68.4a7.77,7.77,0,0,1,6.53-3.24h1.69v3.7h-1.69a6.23,6.23,0,0,0-6.53,6.64V92.15h-3.86V65.63h3.86Z"/><path class="cls-1" d="M317.22,61.15h-3.86v-5h3.86Zm0,31h-3.86V65.63h3.86Z"/><path class="cls-1" d="M346.47,75.29V92.15h-3.86V75.24a6.53,6.53,0,1,0-13.06,0V92.15H325.7V65.63h3.85v2.51a7.8,7.8,0,0,1,6.53-3.23C341,64.91,346.47,67.48,346.47,75.29Z"/><path class="cls-1" d="M370.73,91.79V88.4a7.8,7.8,0,0,1-6.53,3.24c-4.94,0-10.39-2.57-10.39-10.39v-6c0-7.81,5.45-10.38,10.39-10.38a7.82,7.82,0,0,1,6.53,3.23V65.63h3.85V91.74c0,7.87-5.45,10.38-10.38,10.38-4.68,0-9.77-2.26-10.34-9.09h3.91a6.15,6.15,0,0,0,6.43,5.39A6.23,6.23,0,0,0,370.73,91.79ZM357.67,81.3a6.53,6.53,0,1,0,13.06,0V75.24a6.53,6.53,0,1,0-13.06,0Z"/></g><rect id="bg_o" data-name="bg o" class="cls-1" x="52.56" y="52.56" width="47.44" height="47.44" rx="1.3" transform="translate(152.56 152.56) rotate(180)"/><rect id="bg_i" data-name="bg i" class="cls-1" y="52.56" width="47.44" height="47.44" rx="1.3" transform="translate(47.44 152.56) rotate(180)"/><rect id="bg_o-2" data-name="bg o" class="cls-1" x="52.56" width="47.44" height="47.44" rx="1.3"/><rect id="bg_i-2" data-name="bg i" class="cls-1" width="47.44" height="47.44" rx="1.3"/><g id="symbol_i" data-name="symbol i"><rect class="cls-2" x="73.03" y="63.15" width="6.5" height="26.25"/></g><g id="symbol_o" data-name="symbol o"><path class="cls-2" d="M23.72,90.7a14.42,14.42,0,0,0,0-28.84,14.42,14.42,0,0,0,0,28.84Zm0-23.07a8.65,8.65,0,1,1-8.51,8.65A8.58,8.58,0,0,1,23.72,67.63Z"/></g><g id="symbol_o-2" data-name="symbol o"><path class="cls-2" d="M76.28,9.3A14.3,14.3,0,0,0,62.1,23.72a14.18,14.18,0,1,0,28.36,0A14.3,14.3,0,0,0,76.28,9.3Zm0,23.07a8.65,8.65,0,1,1,8.51-8.65A8.58,8.58,0,0,1,76.28,32.37Z"/></g><g id="symbol_i-2" data-name="symbol i"><rect class="cls-2" x="20.47" y="10.6" width="6.5" height="26.25"/></g></g></g></svg>