<?xml version="1.0" encoding="UTF-8"?>
<svg fill="#1A1919" width="100pt" height="100pt" version="1.1" viewBox="0 0 100 100" xmlns="http://www.w3.org/2000/svg">
 <g>
  <path d="m41.051 9.9453c-3.7539 0-6.8047 3.0508-6.8047 6.8047s3.0547 6.8047 6.8047 6.8047 6.8047-3.0547 6.8047-6.8047-3.0508-6.8047-6.8047-6.8047zm0 11.387c-2.5273 0-4.582-2.0586-4.582-4.582 0-2.5273 2.0586-4.582 4.582-4.582 2.5273 0 4.582 2.0547 4.582 4.582s-2.0547 4.582-4.582 4.582z"/>
  <path d="m41.051 13.234c-1.9375 0-3.5156 1.5781-3.5156 3.5156 0 1.9414 1.5781 3.5195 3.5156 3.5195s3.5156-1.5781 3.5156-3.5195c0-1.9375-1.5742-3.5156-3.5156-3.5156zm0 4.8125c-0.71484 0-1.293-0.58203-1.293-1.2969s0.57813-1.293 1.293-1.293c0.71484 0 1.293 0.57812 1.293 1.293s-0.57812 1.2969-1.293 1.2969z"/>
  <path d="m59.223 9.9453c-3.7539 0-6.8047 3.0508-6.8047 6.8047s3.0547 6.8047 6.8047 6.8047 6.8008-3.0547 6.8008-6.8047c0.003906-3.75-3.0508-6.8047-6.8008-6.8047zm0 11.387c-2.5273 0-4.582-2.0586-4.582-4.582 0-2.5273 2.0547-4.582 4.582-4.582s4.5781 2.0547 4.5781 4.582c0.003907 2.5273-2.0508 4.582-4.5781 4.582z"/>
  <path d="m59.223 13.234c-1.9375 0-3.5156 1.5781-3.5156 3.5156 0 1.9414 1.5781 3.5195 3.5156 3.5195s3.5156-1.5781 3.5156-3.5195c0-1.9375-1.5742-3.5156-3.5156-3.5156zm0 4.8125c-0.71484 0-1.293-0.58203-1.293-1.2969s0.57812-1.293 1.293-1.293 1.293 0.57812 1.293 1.293-0.57812 1.2969-1.293 1.2969z"/>
  <path d="m95.195 66.645c0-1.7461-0.74609-3.3203-1.9297-4.4297l-5.4844-13.336c0.61328-1 0.97266-2.1719 0.97266-3.4297 0-3.6289-2.9531-6.5781-6.582-6.5781h-10.926v-2.0625h-19.996v-5.7148h16.012c2.418 0 4.3828-1.9688 4.3828-4.3867v-19.91c0-2.418-1.9648-4.3867-4.3828-4.3867h-34.25c-2.418 0-4.3867 1.9688-4.3867 4.3867v19.91c0 2.418 1.9688 4.3867 4.3867 4.3867h16.012v5.7148h-20v1.7266l-11.195-0.003906c-3.6289 0-6.582 2.9492-6.582 6.5781 0 1.2578 0.35938 2.4297 0.97266 3.4297l-5.4805 13.336c-1.1875 1.1094-1.9336 2.6836-1.9336 4.4297 0 3.1328 2.3867 5.7227 5.4375 6.0391l5.1406 8.1602-1.2422 2.1523 3.4336 5.9453h6.2227v-2.2227h-4.9414l-2.1484-3.7227 2.1484-3.7227h4.3008l2.4727 4.2773 1.9219-1.1094-3.1133-5.3906h-6.8633l-0.93359 1.6172-3.9297-6.2344c2.4531-0.78125 4.2383-3.0781 4.2383-5.7891 0-3.3477-2.7227-6.0742-6.0742-6.0742-0.37891 0-0.74609 0.039062-1.1055 0.10547l4.1016-9.9805c1.1016 0.83203 2.4688 1.332 3.9531 1.332h11.195v7.4492h7.3359v2.6836h-7.3359v25.828h7.3359v1.8086h-7.3359v8.1328h16.891v-8.1328h-7.332v-1.8086h7.332l0.003906-25.828h-7.332v-2.6836h23.109v2.5195h-7.332v25.828h7.332v1.8086h-7.332v8.1328h16.891v-8.1328h-7.3359v-1.8086h7.3359l-0.003906-25.828h-7.3359v-2.5195h7.3359v-7.1055h10.926c1.4844 0 2.8516-0.5 3.9531-1.332l4.1016 9.9766c-0.35937-0.066406-0.73047-0.10547-1.1055-0.10547-3.3477 0-6.0703 2.7227-6.0703 6.0742 0 2.707 1.7852 5.0078 4.2383 5.7891l-3.9297 6.2383-0.93359-1.6172h-6.8633l-3.1133 5.3906 1.9219 1.1094 2.4727-4.2773h4.3008l2.1484 3.7227-2.1484 3.7227h-4.9414v2.2227h6.2227l3.4336-5.9453-1.2422-2.1523 5.1406-8.1641c3.0508-0.31641 5.4375-2.9062 5.4375-6.0391zm-64.344-39.938v-19.91c0-1.1914 0.97266-2.1641 2.1641-2.1641h34.246c1.1914 0 2.1641 0.97266 2.1641 2.1641v19.91c0 1.1914-0.96875 2.1641-2.1641 2.1641h-34.25c-1.1914 0-2.1602-0.97266-2.1602-2.1641zm-16.121 39.598c0 2.125-1.7266 3.8516-3.8516 3.8516s-3.8516-1.7266-3.8516-3.8516 1.7266-3.8516 3.8516-3.8516c2.1211 0 3.8516 1.7305 3.8516 3.8516zm28.961 29.062h-12.445v-3.6875h12.445zm0-9.9414h-12.445v-21.383h12.445zm25.336 9.7812h-12.445v-3.6875h12.445zm0-9.9453h-12.445v-21.383h12.445zm-51.199-35.793c-2.4023 0-4.3594-1.9531-4.3594-4.3555 0-2.4023 1.957-4.3594 4.3594-4.3594h11.195v8.7148zm51.199 7.4492h-37.781v-17.891h37.781zm13.148-7.1094h-10.926v-8.7188h10.926c2.4062 0 4.3594 1.957 4.3594 4.3594 0 2.4023-1.957 4.3594-4.3594 4.3594zm3.0977 16.836c0-2.125 1.7266-3.8516 3.8477-3.8516 2.125 0 3.8516 1.7305 3.8516 3.8516 0 2.1211-1.7266 3.8516-3.8516 3.8516-2.1211 0-3.8477-1.7266-3.8477-3.8516z"/>
 </g>
</svg>
