<?xml version="1.0" encoding="UTF-8" standalone="no"?>
<!DOCTYPE svg PUBLIC "-//W3C//DTD SVG 1.1//EN" "http://www.w3.org/Graphics/SVG/1.1/DTD/svg11.dtd">
<svg width="100%" height="100%" viewBox="0 0 295 27" version="1.1" xmlns="http://www.w3.org/2000/svg" xmlns:xlink="http://www.w3.org/1999/xlink" xml:space="preserve" xmlns:serif="http://www.serif.com/" style="fill-rule:evenodd;clip-rule:evenodd;stroke-linejoin:round;stroke-miterlimit:1.41421;">
    <g id="lang">
        <g id="Crowd" transform="matrix(1,0,0,1,146.669,-1.35315)">
            <path d="M79.308,22.359C82.198,22.359 84.552,20.683 85.462,18.05L84.262,18.05C83.352,20.052 81.517,21.217 79.308,21.217C76.197,21.217 73.827,18.788 73.827,15.617C73.827,12.434 76.173,10.018 79.308,10.018C81.53,10.018 83.387,11.195 84.247,13.139L85.425,13.139C84.554,10.567 82.247,8.875 79.308,8.875C75.507,8.875 72.628,11.753 72.628,15.617C72.628,19.456 75.519,22.36 79.308,22.36L79.308,22.359Z" style="fill-rule:nonzero;"/>
            <path d="M94.118,9.091C92.057,9.091 90.543,10.067 89.678,11.693L89.472,9.137L88.596,9.137L88.596,22.097L89.772,22.097L89.772,14.883C89.772,12.127 91.431,10.212 94.029,10.212L95.245,10.212L95.245,9.091L94.118,9.091Z" style="fill-rule:nonzero;"/>
            <path d="M102.909,22.359C106.794,22.359 109.694,19.479 109.694,15.617C109.694,11.755 106.794,8.875 102.909,8.875C99.038,8.875 96.124,11.731 96.124,15.617C96.124,19.479 99.038,22.359 102.909,22.359ZM102.909,21.217C99.705,21.217 97.323,18.834 97.323,15.617C97.323,12.387 99.692,10.018 102.909,10.018C106.126,10.018 108.496,12.4 108.496,15.617C108.496,18.834 106.126,21.217 102.909,21.217L102.909,21.217Z" style="fill-rule:nonzero;"/>
            <path d="M129.332,9.137L125.473,20.133L121.12,9.486L120.651,9.486L116.336,20.086L112.599,9.137L111.366,9.137L115.799,22.097L116.734,22.097L120.886,11.763L125.062,22.097L125.998,22.097L130.532,9.137L129.332,9.137Z" style="fill-rule:nonzero;"/>
            <path d="M144.3,4.544L144.3,11.751C143.144,9.987 141.168,8.875 138.78,8.875C134.958,8.875 132.148,11.768 132.148,15.617C132.148,19.456 134.958,22.36 138.78,22.36C141.208,22.36 143.211,21.205 144.358,19.389L144.533,22.097L145.476,22.097L145.476,4.544L144.3,4.544ZM138.858,21.217C135.704,21.217 133.347,18.81 133.347,15.617C133.347,12.411 135.704,10.018 138.858,10.018C142.038,10.018 144.367,12.397 144.367,15.617C144.367,18.827 142.038,21.217 138.858,21.217L138.858,21.217Z" style="fill-rule:nonzero;"/>
        </g>
        <g id="Axel-Springer-Logo-lang" serif:id="Axel Springer Logo lang" transform="matrix(1.6312,0,0,1.6312,-5.31783,-3.9212)">
            <g id="BoundingBox" transform="matrix(0.14304,0,0,0.14304,28.802,3.9558)">
                <rect x="0" y="0" width="750" height="100" style="fill:none;"/>
            </g>
            <g transform="matrix(0.14304,0,0,0.14304,28.802,3.9558)">
                <path d="M676.825,22.711L676.825,40.058L669.467,40.058C662.756,40.058 659.944,43.003 659.944,50.021L659.944,78.01L640.993,78.01L640.993,22.975L653.687,22.975L656.647,29.082C660.526,24.593 665.257,22.711 671.806,22.711L676.825,22.711ZM591.725,44.491L613.97,44.491C612.306,38.991 608.341,36.023 602.625,36.023C597.096,36.023 593.258,39.026 591.725,44.491ZM632.249,54.99L591.388,54.99C592.628,61.305 596.638,64.567 602.625,64.567C607.052,64.567 610.749,62.628 612.574,59.403L631.437,59.403C627.564,71.964 616.43,79.812 602.625,79.812C585.455,79.812 572.729,67.262 572.729,50.446C572.729,33.577 585.352,21.172 602.625,21.172C620.36,21.172 632.642,33.827 632.642,49.969C632.642,51.628 632.497,53.288 632.249,54.99ZM547.019,48.889C547.019,41.941 542.133,36.895 535.312,36.895C528.505,36.895 523.564,41.941 523.564,48.889C523.564,55.903 528.446,60.947 535.309,60.947C542.116,60.947 547.019,55.903 547.019,48.889ZM564.743,22.975L564.743,71.895C564.743,89.185 553.419,99.9 535.243,99.9C519.63,99.9 508.699,92.028 506.163,78.985L524.453,78.985C525.77,82.665 530.465,84.645 535.067,84.645C541.42,84.645 546.525,80.608 546.525,74.062L546.525,72.422C542.388,75.047 537.478,76.556 532.163,76.556C516.389,76.556 504.661,64.815 504.661,48.889C504.661,33.198 516.389,21.213 532.163,21.213C538.826,21.213 544.858,23.604 549.522,27.592L551.928,22.975L564.743,22.975ZM475.695,21.349C468.581,21.349 462.47,24.083 458.373,28.649L455.769,22.975L442.475,22.975L442.475,78.01L461.429,78.01L461.429,48.619C461.429,41.615 464.826,37.487 470.737,37.487C475.509,37.487 477.917,40.666 477.917,47.068L477.917,78.01L496.872,78.01L496.872,44.45C496.872,30.43 488.477,21.349 475.695,21.349ZM411.865,22.972L430.819,22.972L430.819,78.007L411.865,78.007L411.865,22.972ZM412.01,0L430.672,0L430.672,16.09L412.01,16.09L412.01,0ZM399.628,22.711C393.075,22.711 388.349,24.593 384.47,29.082L381.514,22.975L368.812,22.975L368.812,78.01L387.77,78.01L387.77,50.021C387.77,43.003 390.581,40.058 397.292,40.058L404.648,40.058L404.648,22.711L399.628,22.711ZM341.692,50.487C341.692,43.261 336.473,37.896 329.373,37.896C322.273,37.896 317.053,43.261 317.053,50.487C317.053,57.719 322.273,63.086 329.373,63.086C336.428,63.086 341.692,57.719 341.692,50.487ZM360.764,50.491C360.764,67.637 348.734,79.871 331.908,79.871C326.934,79.871 322.376,78.562 318.493,76.215L318.493,97.881L299.756,97.881L299.756,22.975L312.644,22.975L315.017,27.347C319.544,23.434 325.369,21.17 331.908,21.17C348.734,21.17 360.764,33.343 360.764,50.491ZM267.341,79.812C281.969,79.812 291.673,72.285 291.673,60.785C291.673,46.827 280.115,45.02 271.423,43.475C266.193,42.546 261.983,41.814 261.983,38.683C261.983,36.134 264.026,34.628 267.065,34.628C270.5,34.628 272.863,36.263 272.863,39.777L290.612,39.777C290.398,28.625 281.313,21.17 267.3,21.17C253.199,21.17 243.801,28.292 243.801,39.322C243.801,52.67 255.11,55.245 263.645,56.63C268.933,57.505 273.098,58.411 273.098,61.584C273.098,64.43 270.469,65.842 267.699,65.842C264.103,65.842 261.302,63.989 261.302,59.965L243.057,59.965C243.229,71.892 252.345,79.812 267.341,79.812ZM194.302,78.01L213.257,78.01L213.257,3.102L194.302,3.102L194.302,78.01ZM145.03,44.491L167.278,44.491C165.615,38.991 161.649,36.023 155.931,36.023C150.405,36.023 146.564,39.026 145.03,44.491ZM185.562,54.99L144.696,54.99C145.937,61.305 149.946,64.567 155.931,64.567C160.361,64.567 164.058,62.628 165.88,59.403L184.745,59.403C180.869,71.964 169.738,79.812 155.931,79.812C138.761,79.812 126.041,67.262 126.041,50.446C126.041,33.577 138.66,21.172 155.931,21.172C173.669,21.172 185.951,33.827 185.951,49.969C185.951,51.628 185.807,53.288 185.562,54.99ZM127.316,78.01L109.029,48.958L126.083,22.975L105.454,22.975L97.137,36.833L89.189,22.975L68.264,22.975L85.179,49.456L66.927,78.01L87.859,78.01L97.089,61.708L106.136,78.01L127.316,78.01ZM43.808,50.476C43.808,43.334 38.588,37.968 31.488,37.968C24.346,37.968 19.172,43.334 19.172,50.476C19.172,57.664 24.391,63.027 31.488,63.027C38.588,63.027 43.808,57.664 43.808,50.476ZM61.835,22.915L61.835,77.948L47.184,77.948L45.561,74.055C41.051,77.707 35.346,79.812 28.956,79.812C12.126,79.812 0.1,67.534 0.1,50.431C0.1,33.388 12.126,21.256 28.956,21.256C35.436,21.256 41.227,23.423 45.771,27.171L47.707,22.915L61.835,22.915Z" style="fill-rule:nonzero;"/>
            </g>
            <g transform="matrix(0.14304,0,0,0.14304,28.802,3.9558)">
                <path d="M687.887,77.941L749.995,77.941L749.995,63.996L687.887,63.996L687.887,77.941Z" style="fill:rgb(0,0,255);fill-rule:nonzero;"/>
            </g>
        </g>
    </g>
    <g transform="matrix(1.39821,0,0,1.39821,1.39264,-0.668955)">
        <g transform="matrix(1,0,0,1,0,-9.94699)">
            <clipPath id="_clip1">
                <path d="M14.983,18.087C14.877,18.087 14.778,18.033 14.721,17.943L11.179,12.328C11.12,12.234 11.117,12.115 11.172,12.018C11.226,11.921 11.329,11.861 11.442,11.861L18.481,11.86C18.593,11.86 18.696,11.92 18.75,12.016C18.805,12.113 18.802,12.231 18.744,12.325L15.246,17.942C15.19,18.032 15.091,18.087 14.984,18.087L14.983,18.087ZM11.998,12.472L14.982,17.202L17.928,12.471L11.998,12.472Z"/>
            </clipPath>
            <g clip-path="url(#_clip1)">
                <rect x="6.133" y="6.86" width="17.657" height="16.228"/>
            </g>
        </g>
        <g transform="matrix(1,0,0,1,0,-9.94723)">
            <clipPath id="_clip2">
                <path d="M7.921,18.087C7.815,18.087 7.716,18.033 7.66,17.944L4.099,12.329C4.04,12.234 4.036,12.116 4.091,12.018C4.145,11.921 4.249,11.861 4.361,11.861L11.442,11.86C11.553,11.86 11.657,11.92 11.711,12.017C11.766,12.113 11.763,12.232 11.704,12.326L8.184,17.942C8.127,18.032 8.029,18.087 7.922,18.087L7.921,18.087ZM4.919,12.472L7.92,17.205L10.887,12.471L4.919,12.472Z"/>
            </clipPath>
            <g clip-path="url(#_clip2)">
                <rect x="-0.948" y="6.86" width="17.698" height="16.227"/>
            </g>
        </g>
        <g transform="matrix(1,0,0,1,0,-9.94712)">
            <clipPath id="_clip3">
                <path d="M7.926,18.087C7.925,18.087 7.923,18.087 7.921,18.087L0.892,18.087C0.78,18.087 0.677,18.027 0.623,17.931C0.568,17.834 0.57,17.717 0.628,17.622L4.097,12.006C4.153,11.916 4.252,11.86 4.359,11.86L4.361,11.86C4.468,11.86 4.566,11.914 4.623,12.003L8.158,17.579C8.206,17.633 8.235,17.704 8.235,17.781C8.235,17.951 8.097,18.087 7.926,18.087ZM1.442,17.476L7.363,17.476L4.364,12.746L1.442,17.476Z"/>
            </clipPath>
            <g clip-path="url(#_clip3)">
                <rect x="-4.417" y="6.86" width="17.652" height="16.228"/>
            </g>
        </g>
        <g transform="matrix(1,0,0,1,0,-9.94712)">
            <clipPath id="_clip4">
                <path d="M14.988,18.087C14.987,18.087 14.985,18.087 14.983,18.087L7.921,18.087C7.809,18.087 7.706,18.027 7.652,17.93C7.597,17.833 7.6,17.715 7.659,17.621L11.179,12.004C11.235,11.915 11.334,11.86 11.441,11.86L11.442,11.86C11.548,11.86 11.647,11.914 11.704,12.004L15.22,17.579C15.268,17.633 15.297,17.704 15.297,17.781C15.297,17.951 15.159,18.087 14.988,18.087ZM8.476,17.476L14.427,17.476L11.442,12.744L8.476,17.476Z"/>
            </clipPath>
            <g clip-path="url(#_clip4)">
                <rect x="2.612" y="6.86" width="17.685" height="16.228"/>
            </g>
        </g>
        <g transform="matrix(1,0,0,1,0,-9.94712)">
            <clipPath id="_clip5">
                <path d="M21.955,18.087C21.954,18.087 21.952,18.087 21.95,18.087L14.983,18.087C14.871,18.087 14.768,18.027 14.713,17.93C14.659,17.834 14.662,17.716 14.72,17.621L18.218,12.005C18.274,11.915 18.374,11.86 18.481,11.86C18.588,11.86 18.688,11.915 18.744,12.006L22.188,17.582C22.235,17.635 22.264,17.705 22.264,17.781C22.264,17.951 22.126,18.087 21.955,18.087ZM15.536,17.476L21.4,17.476L18.48,12.75L15.536,17.476Z"/>
            </clipPath>
            <g clip-path="url(#_clip5)">
                <rect x="9.674" y="6.86" width="17.589" height="16.228"/>
            </g>
        </g>
        <g transform="matrix(1,0,0,1,0,6.50381)">
            <clipPath id="_clip6">
                <path d="M11.481,12.471C11.397,12.471 11.317,12.437 11.259,12.377L0.663,1.543C0.577,1.455 0.553,1.324 0.601,1.211C0.649,1.099 0.761,1.025 0.885,1.025L21.95,1.025C22.074,1.025 22.186,1.098 22.234,1.211C22.283,1.323 22.259,1.453 22.173,1.542L11.704,12.376C11.646,12.436 11.566,12.47 11.482,12.471L11.481,12.471ZM1.614,1.636L11.479,11.724L21.228,1.636L1.614,1.636Z"/>
            </clipPath>
            <g clip-path="url(#_clip6)">
                <rect x="-4.423" y="-3.975" width="31.682" height="21.445"/>
            </g>
        </g>
        <g transform="matrix(1,0,0,1,0,6.50387)">
            <clipPath id="_clip7">
                <path d="M11.481,12.471C11.351,12.471 11.229,12.388 11.187,12.26L7.628,1.425C7.575,1.265 7.664,1.092 7.826,1.04C7.989,0.988 8.162,1.076 8.215,1.236L11.774,12.071C11.827,12.231 11.738,12.404 11.576,12.456C11.545,12.466 11.512,12.471 11.481,12.471Z"/>
            </clipPath>
            <g clip-path="url(#_clip7)">
                <rect x="2.612" y="-3.975" width="14.177" height="21.445"/>
            </g>
        </g>
        <g transform="matrix(1,0,0,1,0,6.50359)">
            <clipPath id="_clip8">
                <path d="M11.491,12.471C11.46,12.471 11.429,12.466 11.397,12.456C11.235,12.405 11.145,12.233 11.197,12.072L14.689,1.238C14.741,1.078 14.913,0.988 15.077,1.039C15.239,1.091 15.329,1.263 15.278,1.423L11.785,12.258C11.743,12.388 11.622,12.471 11.491,12.471Z"/>
            </clipPath>
            <g clip-path="url(#_clip8)">
                <rect x="6.182" y="-3.975" width="14.11" height="21.446"/>
            </g>
        </g>
        <g transform="matrix(1,0,0,1,0,15.1351)">
            <clipPath id="_clip9">
                <path d="M11.5,4.054C12.407,4.054 13.143,3.328 13.143,2.433C13.143,1.537 12.407,0.811 11.5,0.811C10.593,0.811 9.857,1.537 9.857,2.433C9.857,3.328 10.593,4.054 11.5,4.054Z"/>
            </clipPath>
            <g clip-path="url(#_clip9)">
                <rect x="4.857" y="-4.189" width="13.286" height="13.243" style="fill:rgb(9,0,0);"/>
            </g>
        </g>
        <g transform="matrix(1,0,0,1,0,-4.32432)">
            <clipPath id="_clip10">
                <path d="M21.631,13.513C22.387,13.513 23,12.908 23,12.162C23,11.416 22.387,10.81 21.631,10.81C20.875,10.81 20.262,11.416 20.262,12.162C20.262,12.908 20.875,13.513 21.631,13.513Z"/>
            </clipPath>
            <g clip-path="url(#_clip10)">
                <rect x="15.262" y="5.811" width="12.738" height="12.703" style="fill:rgb(9,0,0);"/>
            </g>
        </g>
        <g transform="matrix(1,0,0,1,0,-8.64932)">
            <clipPath id="_clip11">
                <path d="M15.06,17.838C15.816,17.838 16.429,17.232 16.429,16.486C16.429,15.74 15.816,15.135 15.06,15.135C14.303,15.135 13.69,15.74 13.69,16.486C13.69,17.232 14.303,17.838 15.06,17.838Z"/>
            </clipPath>
            <g clip-path="url(#_clip11)">
                <rect x="8.69" y="5.811" width="12.738" height="12.703" style="fill:rgb(9,0,0);"/>
            </g>
        </g>
        <g transform="matrix(1,0,0,1,0,-8.64932)">
            <clipPath id="_clip12">
                <path d="M7.94,17.838C8.697,17.838 9.31,17.232 9.31,16.486C9.31,15.74 8.697,15.135 7.94,15.135C7.184,15.135 6.571,15.74 6.571,16.486C6.571,17.232 7.184,17.838 7.94,17.838Z"/>
            </clipPath>
            <g clip-path="url(#_clip12)">
                <rect x="1.571" y="5.811" width="12.738" height="12.703" style="fill:rgb(9,0,0);"/>
            </g>
        </g>
        <g transform="matrix(1,0,0,1,0,-4.32432)">
            <clipPath id="_clip13">
                <path d="M1.369,13.513C2.125,13.513 2.738,12.908 2.738,12.162C2.738,11.416 2.125,10.81 1.369,10.81C0.613,10.81 0,11.416 0,12.162C0,12.908 0.613,13.513 1.369,13.513Z"/>
            </clipPath>
            <g clip-path="url(#_clip13)">
                <rect x="-5" y="5.811" width="12.738" height="12.703" style="fill:rgb(9,0,0);"/>
            </g>
        </g>
        <g transform="matrix(1,0,0,1,0,-15.6757)">
            <clipPath id="_clip14">
                <path d="M18.619,19.19C19.375,19.19 19.988,18.584 19.988,17.838C19.988,17.092 19.375,16.487 18.619,16.487C17.863,16.487 17.25,17.092 17.25,17.838C17.25,18.584 17.863,19.19 18.619,19.19Z"/>
            </clipPath>
            <g clip-path="url(#_clip14)">
                <rect x="12.25" y="11.486" width="12.738" height="12.703" style="fill:rgb(9,0,0);"/>
            </g>
        </g>
        <g transform="matrix(1,0,0,1,0,-15.6757)">
            <clipPath id="_clip15">
                <path d="M11.5,19.19C12.256,19.19 12.869,18.584 12.869,17.838C12.869,17.092 12.256,16.487 11.5,16.487C10.744,16.487 10.131,17.092 10.131,17.838C10.131,18.584 10.744,19.19 11.5,19.19Z"/>
            </clipPath>
            <g clip-path="url(#_clip15)">
                <rect x="5.131" y="11.486" width="12.738" height="12.703" style="fill:rgb(9,0,0);"/>
            </g>
        </g>
        <g transform="matrix(1,0,0,1,0,-15.6757)">
            <clipPath id="_clip16">
                <path d="M4.381,19.19C5.137,19.19 5.75,18.584 5.75,17.838C5.75,17.092 5.137,16.487 4.381,16.487C3.625,16.487 3.012,17.092 3.012,17.838C3.012,18.584 3.625,19.19 4.381,19.19Z"/>
            </clipPath>
            <g clip-path="url(#_clip16)">
                <rect x="-1.988" y="11.486" width="12.738" height="12.703" style="fill:rgb(9,0,0);"/>
            </g>
        </g>
    </g>
</svg>
